<svg width="350" height="261" viewBox="0 0 350 261" fill="none" xmlns="http://www.w3.org/2000/svg">
<path d="M350 229.18H0V229.355H350V229.18Z" fill="#EBEBEB"/>
<path d="M314.93 240.443H291.746V240.618H314.93V240.443Z" fill="#EBEBEB"/>
<path d="M231.854 242.347H225.771V242.522H231.854V242.347Z" fill="#EBEBEB"/>
<path d="M291.046 233.947H277.613V234.122H291.046V233.947Z" fill="#EBEBEB"/>
<path d="M66.955 235.123H36.722V235.298H66.955V235.123Z" fill="#EBEBEB"/>
<path d="M77.623 235.123H73.192V235.298H77.623V235.123Z" fill="#EBEBEB"/>
<path d="M157.605 238.077H92.029V238.252H157.605V238.077Z" fill="#EBEBEB"/>
<path d="M165.9 197.96H30.737C29.6782 197.958 28.6633 197.536 27.9152 196.787C27.1672 196.037 26.747 195.022 26.747 193.963V3.962C26.7562 2.90922 27.1804 1.90259 27.9275 1.16075C28.6746 0.418921 29.6842 0.00180347 30.737 0H165.9C166.96 0 167.977 0.421111 168.726 1.17069C169.476 1.92028 169.897 2.93693 169.897 3.997V193.963C169.897 195.023 169.476 196.04 168.726 196.789C167.977 197.539 166.96 197.96 165.9 197.96ZM30.737 0.140001C29.7246 0.141855 28.7542 0.545346 28.039 1.26191C27.3237 1.97847 26.922 2.94955 26.922 3.962V193.963C26.922 194.975 27.3237 195.947 28.039 196.663C28.7542 197.38 29.7246 197.783 30.737 197.785H165.9C166.913 197.783 167.884 197.38 168.601 196.664C169.317 195.947 169.72 194.976 169.722 193.963V3.962C169.72 2.94891 169.317 1.97784 168.601 1.26148C167.884 0.545118 166.913 0.141851 165.9 0.140001H30.737Z" fill="#EBEBEB"/>
<path d="M317.317 197.96H182.147C181.087 197.958 180.072 197.536 179.323 196.787C178.574 196.038 178.152 195.022 178.15 193.963V3.962C178.161 2.90858 178.587 1.90195 179.335 1.16031C180.083 0.418676 181.093 0.0017838 182.147 0H317.317C318.369 0.00364315 319.376 0.421574 320.122 1.16321C320.868 1.90484 321.291 2.91043 321.3 3.962V193.963C321.3 195.021 320.881 196.035 320.134 196.784C319.388 197.534 318.375 197.956 317.317 197.96ZM182.147 0.140001C181.134 0.141851 180.163 0.545118 179.446 1.26148C178.73 1.97784 178.327 2.94891 178.325 3.962V193.963C178.327 194.976 178.73 195.947 179.446 196.664C180.163 197.38 181.134 197.783 182.147 197.785H317.317C318.33 197.783 319.301 197.38 320.017 196.664C320.734 195.947 321.137 194.976 321.139 193.963V3.962C321.137 2.94891 320.734 1.97784 320.017 1.26148C319.301 0.545118 318.33 0.141851 317.317 0.140001H182.147Z" fill="#EBEBEB"/>
<path d="M177.247 71.974C176.156 66.7455 174.087 61.77 171.15 57.309L176.4 50.967L165.2 39.767L158.858 45.017C154.401 42.0718 149.428 39.9938 144.2 38.892L143.43 30.723H127.526L126.756 38.892C121.53 39.9831 116.556 42.0517 112.098 44.989L105.756 39.739L94.556 50.939L99.806 57.281C96.8687 61.742 94.8001 66.7175 93.709 71.946L85.533 72.716V88.585L93.709 89.355C94.8014 94.5831 96.8699 99.5584 99.806 104.02L94.5 110.39L105.7 121.59L112.042 116.34C116.499 119.28 121.473 121.349 126.7 122.437L127.47 130.613H143.346L144.116 122.437C149.345 121.348 154.321 119.279 158.781 116.34L165.123 121.59L176.323 110.39L171.073 104.048C174.009 99.5864 176.078 94.6111 177.17 89.383L185.346 88.613V72.744L177.247 71.974ZM156.947 80.675C156.947 84.9253 155.687 89.0802 153.325 92.6142C150.964 96.1482 147.608 98.9026 143.681 100.529C139.754 102.156 135.433 102.581 131.265 101.752C127.096 100.923 123.267 98.8761 120.261 95.8707C117.256 92.8653 115.209 89.0361 114.38 84.8675C113.551 80.6988 113.976 76.3779 115.603 72.4511C117.229 68.5243 119.984 65.1681 123.518 62.8067C127.052 60.4454 131.207 59.185 135.457 59.185C138.28 59.1832 141.076 59.7377 143.684 60.8169C146.293 61.8962 148.663 63.4789 150.659 65.4747C152.656 67.4705 154.239 69.8403 155.319 72.4484C156.399 75.0566 156.955 77.852 156.954 80.675H156.947Z" fill="#E0E0E0"/>
<path d="M222.775 148.155L223.3 154H234.703L235.256 148.127C239.012 147.344 242.586 145.86 245.791 143.752L250.348 147.525L258.419 139.454L254.646 134.897C256.755 131.693 258.24 128.118 259.021 124.362L264.894 123.809V112.434L259.021 111.881C258.24 108.125 256.755 104.55 254.646 101.346L258.419 96.789L250.348 88.725L245.791 92.498C242.588 90.3852 239.013 88.8984 235.256 88.116L234.703 82.243H223.3L222.747 88.116C218.991 88.8997 215.416 90.3864 212.212 92.498L207.655 88.725L199.591 96.789L203.364 101.346C201.252 104.55 199.766 108.125 198.982 111.881L193.109 112.434V123.837L198.982 124.39C199.766 128.146 201.252 131.721 203.364 134.925L199.591 139.482L207.655 147.553L212.212 143.78C215.426 145.89 219.01 147.374 222.775 148.155ZM229.033 133.574C225.977 133.575 222.989 132.67 220.448 130.972C217.906 129.274 215.926 126.86 214.758 124.037C213.589 121.213 213.285 118.105 213.883 115.108C214.481 112.111 215.956 109.359 218.119 107.2C220.283 105.042 223.038 103.574 226.037 102.982C229.035 102.39 232.142 102.702 234.963 103.877C237.784 105.052 240.193 107.038 241.886 109.583C243.578 112.128 244.476 115.118 244.468 118.174C244.457 122.261 242.826 126.177 239.933 129.064C237.04 131.95 233.12 133.572 229.033 133.574Z" fill="#E0E0E0"/>
<path d="M77.357 204.344L77.637 207.34H83.454L83.741 204.351C85.6554 203.948 87.4767 203.188 89.11 202.111L91.434 204.036L95.55 199.927L93.625 197.603C94.701 195.967 95.4586 194.144 95.858 192.227L98.854 191.947V186.13L95.858 185.85C95.4586 183.933 94.701 182.109 93.625 180.474L95.55 178.15L91.434 174.034L89.11 175.959C87.4764 174.884 85.655 174.127 83.741 173.726L83.454 170.73H77.637L77.357 173.726C75.443 174.127 73.6216 174.884 71.988 175.959L69.664 174.034L65.548 178.15L67.473 180.474C66.3937 182.108 65.6358 183.932 65.24 185.85L62.244 186.13V191.947L65.24 192.227C65.6358 194.145 66.3937 195.969 67.473 197.603L65.548 199.927L69.664 204.036L71.988 202.111C73.6201 203.189 75.4421 203.946 77.357 204.344ZM80.549 196.91C78.9915 196.91 77.4689 196.448 76.1739 195.583C74.8788 194.717 73.8695 193.488 73.2734 192.049C72.6774 190.61 72.5214 189.026 72.8253 187.499C73.1292 185.971 73.8792 184.568 74.9805 183.467C76.0819 182.365 77.4851 181.615 79.0127 181.311C80.5403 181.007 82.1237 181.163 83.5626 181.759C85.0016 182.355 86.2315 183.365 87.0968 184.66C87.9621 185.955 88.424 187.477 88.424 189.035C88.424 190.069 88.2203 191.093 87.8245 192.049C87.4288 193.004 86.8487 193.872 86.1175 194.603C85.3862 195.335 84.5181 195.915 83.5626 196.311C82.6072 196.706 81.5832 196.91 80.549 196.91Z" fill="#F0F0F0"/>
<path d="M162.211 228.025H175.791L176.449 221.025C180.925 220.1 185.184 218.333 189 215.817L194.425 220.311L204.015 210.7L199.5 205.282C202.013 201.467 203.78 197.211 204.708 192.738L211.708 192.08V178.5L204.708 177.842C203.778 173.372 202.011 169.118 199.5 165.305L203.987 159.88L194.383 150.276L189 154.763C185.186 152.252 180.933 150.483 176.463 149.548L175.805 142.548H162.225L161.567 149.548C157.095 150.482 152.839 152.251 149.023 154.763L143.598 150.276L133.98 159.88L138.474 165.305C135.958 169.116 134.188 173.37 133.259 177.842L126.259 178.5V192.08L133.259 192.738C134.187 197.212 135.956 201.469 138.474 205.282L133.98 210.7L143.584 220.304L149.009 215.81C152.822 218.328 157.079 220.097 161.553 221.025L162.211 228.025ZM169.001 203.672C165.365 203.672 161.811 202.594 158.788 200.574C155.766 198.554 153.41 195.683 152.018 192.324C150.627 188.966 150.263 185.27 150.972 181.704C151.681 178.138 153.432 174.863 156.003 172.292C158.574 169.721 161.849 167.97 165.415 167.261C168.981 166.552 172.677 166.916 176.035 168.307C179.394 169.699 182.265 172.055 184.285 175.077C186.305 178.1 187.383 181.654 187.383 185.29C187.387 187.706 186.914 190.1 185.992 192.333C185.07 194.567 183.716 196.596 182.009 198.306C180.302 200.016 178.274 201.373 176.042 202.298C173.81 203.224 171.417 203.7 169.001 203.7V203.672Z" fill="#E0E0E0"/>
<path d="M238.112 203.182L237.412 201.782C236.285 199.638 234.353 198.029 232.04 197.309C229.727 196.588 227.224 196.815 225.078 197.939L221.802 199.654C219.659 200.784 218.051 202.717 217.331 205.031C216.611 207.344 216.836 209.848 217.959 211.995L218.659 213.36L216.377 214.564L224.602 230.23L248.619 217.63L240.394 201.957L238.112 203.182ZM233.1 215.166L234.535 217.903L232.799 218.82L231.364 216.083C231.033 216.07 230.711 215.971 230.43 215.795C230.148 215.62 229.918 215.374 229.761 215.082C229.627 214.856 229.541 214.605 229.508 214.344C229.474 214.083 229.494 213.818 229.566 213.566C229.638 213.313 229.761 213.078 229.926 212.874C230.092 212.67 230.298 212.502 230.53 212.379C230.763 212.257 231.018 212.184 231.28 212.164C231.542 212.143 231.806 212.176 232.054 212.261C232.303 212.345 232.532 212.479 232.728 212.655C232.923 212.831 233.081 213.044 233.191 213.283C233.343 213.577 233.414 213.906 233.398 214.237C233.382 214.567 233.279 214.888 233.1 215.166ZM234.5 205.1L222.257 211.526L221.557 210.126C220.936 208.936 220.811 207.547 221.212 206.265C221.612 204.984 222.504 203.913 223.692 203.287L226.961 201.572C228.147 200.948 229.532 200.819 230.813 201.212C232.095 201.605 233.168 202.49 233.8 203.672L234.5 205.1Z" fill="#F0F0F0"/>
<path d="M70.217 119.945L70.728 118.489C71.5196 116.2 71.3718 113.69 70.317 111.51C69.2621 109.329 67.3862 107.655 65.1 106.855L61.6 105.644C59.3081 104.854 56.7963 105.006 54.6162 106.066C52.4362 107.127 50.7662 109.009 49.973 111.3L49.462 112.763L47.033 111.916L41.223 128.639L66.85 137.515L72.653 120.792L70.217 119.945ZM58.051 124.502L57.036 127.4L55.181 126.756L56.196 123.837C55.9785 123.588 55.8298 123.286 55.7647 122.962C55.6997 122.638 55.7204 122.303 55.825 121.989C55.9949 121.502 56.3514 121.102 56.8161 120.877C57.2808 120.653 57.8157 120.622 58.303 120.792C58.7903 120.962 59.1902 121.318 59.4147 121.783C59.6392 122.248 59.6699 122.783 59.5 123.27C59.387 123.584 59.1939 123.863 58.9396 124.079C58.6854 124.295 58.3791 124.441 58.051 124.502ZM66.374 118.615L53.312 114.1L53.816 112.637C54.2591 111.37 55.1864 110.33 56.3947 109.744C57.603 109.159 58.994 109.077 60.263 109.515L63.763 110.726C65.0314 111.168 66.0727 112.095 66.6581 113.303C67.2435 114.512 67.3251 115.904 66.885 117.173L66.374 118.615Z" fill="#F0F0F0"/>
<path d="M299.551 111.769L298.053 111.293C300.104 110.929 301.974 109.889 303.365 108.338C304.755 106.787 305.586 104.814 305.724 102.736C305.862 100.657 305.299 98.5926 304.126 96.8713C302.952 95.1501 301.236 93.8717 299.251 93.2403C297.266 92.6089 295.127 92.6609 293.174 93.3881C291.222 94.1153 289.57 95.4757 288.482 97.252C287.394 99.0283 286.933 101.118 287.171 103.187C287.41 105.257 288.336 107.186 289.8 108.668L288.309 108.192C286.124 107.494 283.751 107.692 281.712 108.742C279.672 109.792 278.133 111.608 277.431 113.792L275.933 118.51L303.681 127.323L305.2 122.64C305.544 121.555 305.671 120.413 305.574 119.28C305.476 118.146 305.156 117.042 304.631 116.032C304.106 115.023 303.387 114.126 302.516 113.395C301.644 112.663 300.637 112.111 299.551 111.769Z" fill="#F0F0F0"/>
<path d="M198.933 27.23L198.002 27.622C198.855 26.5867 199.336 25.2955 199.369 23.9546C199.402 22.6137 198.985 21.3004 198.183 20.2246C197.382 19.1488 196.244 18.3725 194.95 18.0197C193.656 17.667 192.281 17.7581 191.044 18.2785C189.808 18.7989 188.782 19.7187 188.13 20.8908C187.478 22.0629 187.237 23.4198 187.447 24.7446C187.656 26.0695 188.304 27.2859 189.286 28.1996C190.268 29.1132 191.528 29.6714 192.864 29.785L191.933 30.177C190.575 30.7547 189.5 31.8449 188.942 33.2108C188.384 34.5766 188.387 36.1076 188.951 37.471L190.183 40.411L207.466 33.145L206.227 30.212C205.649 28.8543 204.559 27.7794 203.193 27.221C201.827 26.6626 200.296 26.6658 198.933 27.23Z" fill="#F0F0F0"/>
<path d="M73.85 46.9L72.863 46.697C74.1569 46.3301 75.2905 45.54 76.0825 44.453C76.8745 43.366 77.2792 42.0449 77.232 40.7008C77.1847 39.3567 76.6882 38.0672 75.8218 37.0385C74.9554 36.0098 73.7692 35.3013 72.4527 35.0262C71.1362 34.7511 69.7655 34.9253 68.5596 35.5209C67.3538 36.1166 66.3824 37.0993 65.8009 38.312C65.2193 39.5247 65.0611 40.8973 65.3515 42.2105C65.642 43.5237 66.3643 44.7016 67.403 45.556L66.416 45.353C64.9655 45.0592 63.4578 45.3516 62.2222 46.1661C60.9866 46.9806 60.1237 48.2512 59.822 49.7L59.171 52.815L77.518 56.637L78.169 53.522C78.4717 52.0714 78.1872 50.5599 77.3776 49.3187C76.5681 48.0775 75.2996 47.2077 73.85 46.9Z" fill="#F0F0F0"/>
<path d="M175 260.792C249.958 260.792 310.723 257.244 310.723 252.868C310.723 248.492 249.958 244.944 175 244.944C100.042 244.944 39.277 248.492 39.277 252.868C39.277 257.244 100.042 260.792 175 260.792Z" fill="#F5F5F5"/>
<path d="M258.426 54.894H133.189C130.359 54.894 128.065 57.1881 128.065 60.018V213.787C128.065 216.617 130.359 218.911 133.189 218.911H258.426C261.256 218.911 263.55 216.617 263.55 213.787V60.018C263.55 57.1881 261.256 54.894 258.426 54.894Z" fill="#389238"/>
<path opacity="0.6" d="M258.426 54.894H133.189C130.359 54.894 128.065 57.1881 128.065 60.018V213.787C128.065 216.617 130.359 218.911 133.189 218.911H258.426C261.256 218.911 263.55 216.617 263.55 213.787V60.018C263.55 57.1881 261.256 54.894 258.426 54.894Z" fill="white"/>
<path d="M241.598 155.939H150.01V171.619H241.598V155.939Z" fill="white"/>
<g opacity="0.4">
<path d="M154.63 163.471C154.626 163.164 154.684 162.859 154.802 162.576C154.92 162.292 155.094 162.035 155.314 161.821C155.534 161.607 155.795 161.44 156.082 161.33C156.369 161.22 156.675 161.17 156.982 161.182C157.287 161.171 157.591 161.224 157.874 161.337C158.157 161.451 158.414 161.622 158.627 161.84L158.326 162.141C158.153 161.966 157.945 161.828 157.716 161.736C157.488 161.645 157.242 161.601 156.996 161.609C156.502 161.609 156.029 161.805 155.679 162.154C155.33 162.504 155.134 162.977 155.134 163.471C155.134 163.965 155.33 164.438 155.679 164.788C156.029 165.137 156.502 165.333 156.996 165.333C157.243 165.341 157.489 165.297 157.718 165.204C157.947 165.111 158.154 164.972 158.326 164.794L158.627 165.095C158.413 165.314 158.155 165.486 157.871 165.599C157.586 165.712 157.281 165.765 156.975 165.753C156.669 165.766 156.363 165.717 156.077 165.608C155.79 165.499 155.529 165.332 155.31 165.118C155.09 164.905 154.916 164.648 154.799 164.365C154.683 164.082 154.625 163.777 154.63 163.471Z" fill="#263238"/>
<path d="M159.054 164.031C159.053 163.69 159.152 163.356 159.341 163.072C159.529 162.788 159.798 162.567 160.112 162.435C160.427 162.304 160.773 162.269 161.108 162.334C161.442 162.4 161.75 162.563 161.991 162.804C162.233 163.044 162.397 163.351 162.464 163.685C162.531 164.02 162.498 164.366 162.368 164.681C162.237 164.996 162.017 165.266 161.733 165.455C161.45 165.645 161.117 165.746 160.776 165.746C160.548 165.754 160.322 165.715 160.11 165.631C159.898 165.548 159.705 165.422 159.544 165.261C159.382 165.101 159.255 164.909 159.171 164.697C159.087 164.485 159.047 164.259 159.054 164.031ZM162.029 164.031C162.018 163.784 161.935 163.546 161.789 163.346C161.644 163.146 161.443 162.994 161.212 162.907C160.981 162.82 160.729 162.804 160.488 162.859C160.247 162.914 160.028 163.039 159.858 163.218C159.687 163.397 159.573 163.622 159.53 163.865C159.486 164.109 159.515 164.359 159.613 164.586C159.711 164.813 159.874 165.006 160.08 165.141C160.287 165.277 160.529 165.348 160.776 165.347C160.947 165.35 161.117 165.318 161.274 165.252C161.432 165.186 161.574 165.089 161.692 164.965C161.81 164.841 161.901 164.694 161.959 164.533C162.017 164.373 162.041 164.201 162.029 164.031Z" fill="#263238"/>
<path d="M166.53 163.758V165.718H166.075V163.8C166.096 163.659 166.084 163.515 166.041 163.38C165.998 163.244 165.926 163.119 165.828 163.016C165.73 162.912 165.611 162.832 165.478 162.781C165.345 162.73 165.202 162.71 165.06 162.722C164.898 162.711 164.736 162.735 164.584 162.794C164.433 162.852 164.296 162.943 164.183 163.059C164.071 163.176 163.985 163.316 163.932 163.469C163.879 163.623 163.86 163.786 163.877 163.947V165.718H163.422V162.337H163.856V162.96C163.992 162.746 164.184 162.573 164.411 162.46C164.638 162.346 164.891 162.297 165.144 162.316C165.335 162.301 165.526 162.329 165.705 162.397C165.884 162.465 166.045 162.572 166.177 162.71C166.31 162.848 166.41 163.013 166.471 163.194C166.532 163.376 166.552 163.568 166.53 163.758Z" fill="#263238"/>
<path d="M168.868 160.923C169.119 160.91 169.366 160.984 169.568 161.133L169.414 161.476C169.272 161.361 169.093 161.301 168.91 161.308C168.525 161.308 168.315 161.525 168.315 161.945V162.337H169.358V162.722H168.329V165.718H167.874V162.722H167.272V162.337H167.874V161.924C167.864 161.791 167.882 161.656 167.928 161.531C167.974 161.405 168.047 161.291 168.142 161.196C168.236 161.101 168.35 161.027 168.475 160.98C168.6 160.933 168.734 160.914 168.868 160.923ZM171.024 161.266C171.025 161.31 171.017 161.355 171 161.396C170.984 161.437 170.959 161.474 170.928 161.506C170.896 161.537 170.859 161.562 170.818 161.578C170.776 161.595 170.732 161.603 170.688 161.602C170.641 161.609 170.594 161.606 170.548 161.592C170.503 161.579 170.461 161.556 170.425 161.525C170.389 161.495 170.361 161.456 170.341 161.413C170.321 161.37 170.311 161.324 170.311 161.276C170.311 161.229 170.321 161.183 170.341 161.14C170.361 161.097 170.389 161.058 170.425 161.028C170.461 160.997 170.503 160.974 170.548 160.961C170.594 160.947 170.641 160.944 170.688 160.951C170.731 160.949 170.774 160.956 170.814 160.971C170.854 160.986 170.891 161.008 170.922 161.038C170.954 161.067 170.979 161.102 170.996 161.142C171.014 161.181 171.023 161.223 171.024 161.266ZM170.457 162.337H170.912V165.718H170.457V162.337Z" fill="#263238"/>
<path d="M173.887 162.316V162.757H173.775C173.614 162.749 173.454 162.777 173.305 162.838C173.156 162.9 173.023 162.994 172.914 163.113C172.806 163.232 172.725 163.373 172.678 163.527C172.631 163.681 172.618 163.844 172.641 164.003V165.725H172.2V162.344H172.634V163.009C172.749 162.781 172.931 162.593 173.154 162.47C173.377 162.346 173.633 162.293 173.887 162.316Z" fill="#263238"/>
<path d="M180.278 163.758V165.718H179.823V163.8C179.823 163.1 179.466 162.722 178.857 162.722C178.698 162.715 178.54 162.742 178.393 162.802C178.246 162.863 178.113 162.954 178.005 163.071C177.897 163.188 177.816 163.327 177.767 163.478C177.719 163.629 177.703 163.789 177.723 163.947V165.718H177.268V163.8C177.268 163.1 176.911 162.722 176.295 162.722C176.137 162.716 175.979 162.744 175.832 162.805C175.686 162.866 175.554 162.957 175.446 163.074C175.338 163.19 175.257 163.328 175.208 163.479C175.159 163.63 175.143 163.789 175.161 163.947V165.718H174.706V162.337H175.147V162.953C175.28 162.748 175.464 162.581 175.682 162.469C175.899 162.358 176.142 162.305 176.386 162.316C176.633 162.296 176.881 162.353 177.095 162.478C177.309 162.603 177.479 162.791 177.583 163.016C177.722 162.789 177.919 162.605 178.155 162.481C178.39 162.358 178.655 162.301 178.92 162.316C179.109 162.302 179.299 162.33 179.476 162.399C179.653 162.467 179.813 162.575 179.943 162.713C180.073 162.851 180.171 163.017 180.229 163.198C180.287 163.378 180.304 163.57 180.278 163.758Z" fill="#263238"/>
<path d="M187.054 161.224V165.718H186.662L183.771 162.071V165.718H183.295V161.224H183.687L186.585 164.871V161.224H187.054Z" fill="#263238"/>
<path d="M191.359 164.171H188.559C188.568 164.336 188.609 164.498 188.681 164.646C188.753 164.795 188.854 164.928 188.978 165.037C189.102 165.147 189.246 165.231 189.402 165.284C189.559 165.337 189.724 165.358 189.889 165.347C190.083 165.353 190.276 165.316 190.454 165.239C190.632 165.161 190.79 165.045 190.918 164.899L191.177 165.2C190.934 165.453 190.623 165.63 190.28 165.707C189.938 165.784 189.581 165.758 189.253 165.634C188.925 165.509 188.641 165.291 188.437 165.006C188.233 164.72 188.117 164.382 188.104 164.031C188.091 163.808 188.125 163.586 188.202 163.377C188.28 163.167 188.399 162.977 188.553 162.816C188.708 162.655 188.893 162.527 189.099 162.441C189.305 162.355 189.526 162.313 189.749 162.316C189.972 162.312 190.193 162.354 190.399 162.439C190.605 162.525 190.791 162.652 190.945 162.814C191.099 162.975 191.217 163.166 191.294 163.376C191.37 163.585 191.402 163.809 191.387 164.031C191.366 164.066 191.359 164.115 191.359 164.171ZM188.559 163.828H190.953C190.953 163.511 190.827 163.206 190.602 162.982C190.378 162.757 190.073 162.631 189.756 162.631C189.438 162.631 189.134 162.757 188.91 162.982C188.685 163.206 188.559 163.511 188.559 163.828Z" fill="#263238"/>
<path d="M197.19 162.337L195.909 165.718H195.482L194.418 162.953L193.354 165.718H192.92L191.653 162.337H192.087L193.144 165.207L194.229 162.337H194.6L195.678 165.207L196.749 162.337H197.19Z" fill="#263238"/>
<path d="M203.175 162.764C203.175 163.723 202.475 164.297 201.334 164.297H200.13V165.697H199.654V161.203H201.334C202.482 161.224 203.175 161.798 203.175 162.764ZM202.699 162.764C202.699 162.064 202.223 161.637 201.299 161.637H200.13V163.884H201.327C202.223 163.884 202.699 163.471 202.699 162.764Z" fill="#263238"/>
<path d="M206.619 163.625V165.725H206.185V165.2C206.058 165.387 205.883 165.537 205.679 165.634C205.475 165.731 205.248 165.772 205.023 165.753C204.26 165.753 203.791 165.354 203.791 164.773C203.791 164.192 204.12 163.8 205.1 163.8H206.171V163.597C206.171 163.023 205.842 162.708 205.212 162.708C204.804 162.703 204.408 162.842 204.092 163.1L203.889 162.764C204.287 162.452 204.783 162.291 205.289 162.309C205.468 162.288 205.648 162.307 205.818 162.366C205.988 162.424 206.143 162.521 206.271 162.647C206.398 162.773 206.496 162.927 206.556 163.096C206.617 163.266 206.638 163.446 206.619 163.625ZM206.164 164.703V164.15H205.1C204.442 164.15 204.232 164.409 204.232 164.752C204.232 165.095 204.547 165.389 205.086 165.389C205.315 165.403 205.543 165.345 205.737 165.222C205.93 165.098 206.08 164.917 206.164 164.703Z" fill="#263238"/>
<path d="M207.389 165.333L207.599 164.969C207.946 165.221 208.366 165.354 208.796 165.347C209.44 165.347 209.699 165.13 209.699 164.801C209.699 163.919 207.515 164.612 207.515 163.275C207.515 162.722 207.991 162.316 208.845 162.316C209.266 162.307 209.68 162.416 210.042 162.631L209.846 162.995C209.549 162.801 209.2 162.701 208.845 162.708C208.236 162.708 207.97 162.946 207.97 163.261C207.97 164.178 210.161 163.492 210.161 164.787C210.161 165.368 209.643 165.746 208.761 165.746C208.271 165.76 207.79 165.615 207.389 165.333Z" fill="#263238"/>
<path d="M210.532 165.333L210.735 164.969C211.086 165.22 211.508 165.353 211.939 165.347C212.576 165.347 212.842 165.13 212.842 164.801C212.842 163.919 210.651 164.612 210.651 163.275C210.651 162.722 211.127 162.316 211.988 162.316C212.406 162.308 212.819 162.417 213.178 162.631L212.982 162.995C212.687 162.801 212.341 162.701 211.988 162.708C211.379 162.708 211.106 162.946 211.106 163.261C211.106 164.178 213.297 163.492 213.297 164.787C213.297 165.368 212.786 165.746 211.897 165.746C211.409 165.761 210.93 165.616 210.532 165.333Z" fill="#263238"/>
<path d="M219.03 162.337L217.749 165.718H217.322L216.258 162.953L215.194 165.718H214.76L213.5 162.337H213.934L214.991 165.207L216.076 162.337H216.468L217.546 165.207L218.617 162.337H219.03Z" fill="#263238"/>
<path d="M219.282 164.031C219.282 163.692 219.382 163.361 219.571 163.079C219.759 162.797 220.026 162.577 220.339 162.447C220.652 162.317 220.997 162.283 221.329 162.348C221.661 162.414 221.967 162.577 222.207 162.816C222.447 163.055 222.611 163.36 222.678 163.692C222.745 164.024 222.712 164.369 222.583 164.682C222.455 164.996 222.236 165.264 221.955 165.454C221.674 165.643 221.343 165.745 221.004 165.746C220.776 165.755 220.549 165.716 220.336 165.634C220.124 165.551 219.931 165.425 219.769 165.264C219.608 165.103 219.481 164.91 219.397 164.698C219.313 164.486 219.274 164.259 219.282 164.031ZM222.25 164.031C222.238 163.786 222.154 163.55 222.008 163.352C221.863 163.154 221.663 163.004 221.433 162.919C221.203 162.834 220.953 162.818 220.714 162.874C220.475 162.93 220.257 163.054 220.089 163.233C219.92 163.411 219.807 163.634 219.765 163.876C219.722 164.118 219.751 164.367 219.849 164.592C219.946 164.817 220.108 165.009 220.313 165.143C220.518 165.277 220.759 165.348 221.004 165.347C221.174 165.349 221.343 165.316 221.5 165.25C221.657 165.184 221.798 165.086 221.915 164.962C222.033 164.838 222.123 164.692 222.18 164.532C222.238 164.371 222.262 164.201 222.25 164.031Z" fill="#263238"/>
<path d="M225.344 162.316V162.757H225.239C225.078 162.749 224.918 162.777 224.769 162.839C224.62 162.9 224.487 162.994 224.378 163.113C224.27 163.232 224.189 163.373 224.142 163.527C224.095 163.681 224.082 163.844 224.105 164.003V165.725H223.643V162.344H224.084V163.009C224.2 162.78 224.382 162.591 224.607 162.468C224.832 162.344 225.089 162.291 225.344 162.316Z" fill="#263238"/>
<path d="M229.215 160.951V165.718H228.781V165.018C228.646 165.24 228.454 165.422 228.225 165.546C227.996 165.669 227.739 165.728 227.479 165.718C227.024 165.718 226.588 165.537 226.266 165.216C225.945 164.894 225.764 164.458 225.764 164.003C225.764 163.548 225.945 163.112 226.266 162.79C226.588 162.469 227.024 162.288 227.479 162.288C227.732 162.279 227.982 162.336 228.207 162.452C228.431 162.569 228.622 162.741 228.76 162.953V160.923L229.215 160.951ZM228.767 164.031C228.755 163.786 228.671 163.55 228.526 163.353C228.381 163.155 228.181 163.004 227.951 162.919C227.722 162.834 227.472 162.818 227.233 162.873C226.994 162.928 226.777 163.052 226.608 163.23C226.439 163.407 226.326 163.631 226.282 163.872C226.239 164.113 226.267 164.362 226.364 164.587C226.46 164.812 226.62 165.004 226.825 165.139C227.029 165.275 227.269 165.347 227.514 165.347C227.685 165.35 227.854 165.318 228.012 165.252C228.17 165.186 228.312 165.089 228.43 164.965C228.548 164.841 228.639 164.694 228.697 164.533C228.755 164.373 228.779 164.201 228.767 164.031Z" fill="#263238"/>
</g>
<path opacity="0.2" d="M241.598 186.627H150.01V202.307H241.598V186.627Z" fill="black"/>
<g opacity="0.5">
<path d="M150.577 118.86V119.91H151.977V120.155H150.577V121.296H150.29V118.615H152.131V118.86H150.577Z" fill="black"/>
<path d="M152.39 120.288C152.39 120.084 152.45 119.886 152.563 119.716C152.676 119.547 152.837 119.415 153.025 119.337C153.213 119.259 153.42 119.239 153.62 119.279C153.819 119.318 154.003 119.416 154.147 119.56C154.291 119.704 154.389 119.888 154.428 120.087C154.468 120.287 154.448 120.494 154.37 120.682C154.292 120.87 154.16 121.031 153.991 121.144C153.821 121.257 153.623 121.317 153.419 121.317C153.283 121.322 153.147 121.299 153.019 121.249C152.892 121.199 152.777 121.123 152.68 121.026C152.584 120.93 152.508 120.815 152.458 120.687C152.408 120.56 152.385 120.424 152.39 120.288ZM154.168 120.288C154.162 120.139 154.113 119.996 154.027 119.875C153.94 119.754 153.82 119.662 153.681 119.609C153.542 119.556 153.39 119.546 153.245 119.579C153.101 119.612 152.969 119.686 152.866 119.794C152.763 119.901 152.695 120.037 152.668 120.183C152.642 120.329 152.66 120.48 152.719 120.616C152.778 120.753 152.876 120.869 153 120.95C153.125 121.031 153.27 121.073 153.419 121.072C153.521 121.074 153.622 121.055 153.716 121.016C153.811 120.977 153.896 120.919 153.966 120.845C154.037 120.771 154.091 120.684 154.126 120.588C154.16 120.492 154.175 120.39 154.168 120.288Z" fill="black"/>
<path d="M156.016 119.266V119.532H155.953C155.855 119.524 155.757 119.537 155.665 119.572C155.574 119.607 155.491 119.663 155.424 119.734C155.356 119.805 155.306 119.891 155.277 119.984C155.247 120.078 155.239 120.177 155.253 120.274V121.303H154.98V119.28H155.239V119.7C155.307 119.555 155.418 119.436 155.558 119.358C155.697 119.28 155.857 119.248 156.016 119.266Z" fill="black"/>
<path d="M158.354 119.28V121.051C158.376 121.188 158.364 121.329 158.321 121.461C158.278 121.593 158.205 121.713 158.106 121.811C158.008 121.91 157.888 121.983 157.756 122.026C157.624 122.069 157.483 122.081 157.346 122.059C157.006 122.074 156.673 121.964 156.408 121.751L156.548 121.541C156.769 121.728 157.05 121.827 157.339 121.821C157.85 121.821 158.081 121.583 158.081 121.086V120.827C157.994 120.954 157.877 121.056 157.74 121.124C157.603 121.193 157.45 121.226 157.297 121.219C157.162 121.23 157.026 121.214 156.897 121.17C156.769 121.126 156.651 121.056 156.551 120.964C156.451 120.872 156.372 120.761 156.317 120.637C156.262 120.512 156.234 120.378 156.234 120.242C156.234 120.107 156.262 119.973 156.317 119.848C156.372 119.724 156.451 119.613 156.551 119.521C156.651 119.429 156.769 119.359 156.897 119.315C157.026 119.271 157.162 119.255 157.297 119.266C157.453 119.26 157.608 119.293 157.747 119.363C157.887 119.433 158.007 119.537 158.095 119.665V119.28H158.354ZM158.088 120.239C158.092 120.087 158.051 119.938 157.97 119.81C157.889 119.681 157.771 119.58 157.632 119.519C157.493 119.458 157.339 119.44 157.189 119.467C157.04 119.494 156.902 119.565 156.793 119.671C156.685 119.777 156.61 119.913 156.579 120.061C156.547 120.21 156.561 120.364 156.618 120.505C156.675 120.646 156.773 120.766 156.899 120.851C157.025 120.936 157.173 120.981 157.325 120.981C157.426 120.99 157.527 120.978 157.623 120.944C157.718 120.91 157.805 120.856 157.878 120.786C157.95 120.715 158.006 120.63 158.043 120.535C158.079 120.441 158.095 120.34 158.088 120.239Z" fill="black"/>
<path d="M158.9 120.288C158.9 120.084 158.96 119.886 159.073 119.716C159.186 119.547 159.347 119.415 159.535 119.337C159.723 119.259 159.93 119.239 160.13 119.279C160.329 119.318 160.513 119.416 160.657 119.56C160.801 119.704 160.899 119.888 160.938 120.087C160.978 120.287 160.958 120.494 160.88 120.682C160.802 120.87 160.67 121.031 160.501 121.144C160.331 121.257 160.133 121.317 159.929 121.317C159.793 121.322 159.657 121.299 159.529 121.249C159.402 121.199 159.287 121.123 159.19 121.026C159.094 120.93 159.018 120.815 158.968 120.687C158.918 120.56 158.895 120.424 158.9 120.288ZM160.678 120.288C160.671 120.142 160.621 120 160.535 119.882C160.449 119.763 160.33 119.673 160.192 119.621C160.055 119.57 159.906 119.56 159.763 119.593C159.62 119.626 159.49 119.7 159.388 119.806C159.287 119.912 159.219 120.045 159.193 120.189C159.167 120.334 159.183 120.482 159.241 120.617C159.299 120.752 159.394 120.867 159.517 120.948C159.639 121.029 159.782 121.072 159.929 121.072C160.032 121.076 160.135 121.059 160.231 121.02C160.327 120.982 160.413 120.924 160.485 120.85C160.557 120.776 160.613 120.688 160.649 120.591C160.684 120.494 160.699 120.391 160.692 120.288H160.678Z" fill="black"/>
<path d="M162.589 121.177C162.466 121.269 162.316 121.319 162.162 121.317C162.083 121.326 162.002 121.317 161.927 121.29C161.851 121.264 161.783 121.221 161.727 121.164C161.67 121.108 161.627 121.04 161.601 120.964C161.574 120.889 161.565 120.808 161.574 120.729V119.511H161.21V119.28H161.574V118.839H161.847V119.28H162.456V119.511H161.847V120.715C161.847 120.953 161.966 121.079 162.19 121.079C162.299 121.081 162.405 121.047 162.491 120.981L162.589 121.177Z" fill="black"/>
<path d="M166.25 119.532C166.25 120.106 165.83 120.449 165.151 120.449H164.451V121.296H164.164V118.615H165.172C165.83 118.615 166.25 118.958 166.25 119.532ZM165.963 119.532C165.963 119.105 165.683 118.832 165.144 118.832H164.444V120.169H165.144C165.683 120.197 165.963 119.952 165.963 119.532Z" fill="black"/>
<path d="M168.308 120.05V121.296H168.049V120.981C167.973 121.095 167.868 121.186 167.745 121.245C167.622 121.304 167.485 121.329 167.349 121.317C166.887 121.317 166.607 121.079 166.607 120.729C166.607 120.379 166.81 120.155 167.391 120.155H168.028V120.036C168.034 119.962 168.023 119.887 167.996 119.817C167.969 119.747 167.927 119.684 167.873 119.633C167.818 119.582 167.753 119.544 167.682 119.522C167.61 119.499 167.535 119.493 167.461 119.504C167.206 119.492 166.956 119.577 166.761 119.742L166.635 119.539C166.868 119.355 167.157 119.258 167.454 119.266C167.565 119.24 167.681 119.241 167.792 119.27C167.903 119.299 168.005 119.354 168.089 119.431C168.173 119.509 168.237 119.606 168.275 119.713C168.314 119.821 168.325 119.937 168.308 120.05ZM168.035 120.694V120.358H167.405C167.013 120.358 166.887 120.512 166.887 120.722C166.887 120.932 167.076 121.1 167.398 121.1C167.533 121.108 167.668 121.073 167.782 121C167.897 120.927 167.985 120.82 168.035 120.694Z" fill="black"/>
<path d="M168.77 121.1L168.896 120.89C169.1 121.036 169.345 121.114 169.596 121.114C169.981 121.114 170.135 120.981 170.135 120.785C170.135 120.26 168.826 120.673 168.826 119.875C168.826 119.546 169.113 119.301 169.624 119.301C169.87 119.297 170.113 119.363 170.324 119.49L170.205 119.707C170.03 119.588 169.822 119.526 169.61 119.532C169.246 119.532 169.085 119.672 169.085 119.868C169.085 120.414 170.394 120.001 170.394 120.778C170.394 121.128 170.086 121.352 169.561 121.352C169.277 121.355 169 121.266 168.77 121.1Z" fill="black"/>
<path d="M170.646 121.1L170.772 120.89C170.977 121.035 171.221 121.113 171.472 121.114C171.857 121.114 172.011 120.981 172.011 120.785C172.011 120.26 170.709 120.673 170.709 119.875C170.709 119.546 170.989 119.301 171.5 119.301C171.746 119.297 171.989 119.363 172.2 119.49L172.081 119.707C171.906 119.588 171.698 119.526 171.486 119.532C171.122 119.532 170.961 119.672 170.961 119.868C170.961 120.414 172.27 120.001 172.27 120.778C172.27 121.128 171.962 121.352 171.437 121.352C171.153 121.355 170.876 121.266 170.646 121.1Z" fill="black"/>
<path d="M175.7 119.28L175 121.296H174.741L174.104 119.644L173.467 121.296H173.208L172.452 119.28H172.711L173.341 120.995L173.992 119.28H174.223L174.867 120.995L175.511 119.28H175.7Z" fill="black"/>
<path d="M175.875 120.288C175.875 120.084 175.935 119.886 176.048 119.716C176.162 119.547 176.322 119.415 176.51 119.337C176.698 119.259 176.905 119.239 177.105 119.279C177.304 119.318 177.488 119.416 177.632 119.56C177.776 119.704 177.874 119.888 177.913 120.087C177.953 120.287 177.933 120.494 177.855 120.682C177.777 120.87 177.645 121.031 177.476 121.144C177.306 121.257 177.108 121.317 176.904 121.317C176.768 121.322 176.632 121.299 176.505 121.249C176.377 121.199 176.262 121.123 176.166 121.026C176.069 120.93 175.993 120.815 175.943 120.687C175.893 120.56 175.87 120.424 175.875 120.288ZM177.653 120.288C177.646 120.142 177.596 120 177.51 119.882C177.424 119.763 177.305 119.673 177.167 119.621C177.03 119.57 176.881 119.56 176.738 119.593C176.595 119.626 176.465 119.7 176.363 119.806C176.262 119.912 176.194 120.045 176.168 120.189C176.142 120.334 176.158 120.482 176.216 120.617C176.274 120.752 176.369 120.867 176.492 120.948C176.614 121.029 176.757 121.072 176.904 121.072C177.006 121.074 177.107 121.055 177.201 121.016C177.296 120.977 177.381 120.919 177.451 120.845C177.522 120.771 177.576 120.684 177.611 120.588C177.645 120.492 177.66 120.39 177.653 120.288Z" fill="black"/>
<path d="M179.501 119.266V119.532H179.438C179.34 119.524 179.242 119.537 179.15 119.572C179.059 119.607 178.976 119.663 178.909 119.734C178.841 119.805 178.791 119.891 178.762 119.984C178.732 120.078 178.724 120.177 178.738 120.274V121.303H178.5V119.28H178.759V119.7C178.825 119.561 178.931 119.446 179.063 119.369C179.195 119.291 179.348 119.255 179.501 119.266Z" fill="black"/>
<path d="M181.818 118.454V121.296H181.552V120.897C181.473 121.031 181.358 121.14 181.222 121.214C181.085 121.288 180.93 121.324 180.775 121.317C180.518 121.296 180.278 121.178 180.103 120.988C179.928 120.799 179.831 120.55 179.831 120.291C179.831 120.033 179.928 119.784 180.103 119.595C180.278 119.405 180.518 119.287 180.775 119.266C180.927 119.261 181.077 119.295 181.212 119.365C181.347 119.435 181.461 119.538 181.545 119.665V118.454H181.818ZM181.545 120.288C181.538 120.142 181.489 120 181.402 119.882C181.316 119.763 181.197 119.673 181.059 119.621C180.922 119.57 180.773 119.56 180.63 119.593C180.487 119.626 180.357 119.7 180.255 119.806C180.154 119.912 180.086 120.045 180.06 120.189C180.034 120.334 180.05 120.482 180.108 120.617C180.166 120.752 180.262 120.867 180.384 120.948C180.506 121.029 180.649 121.072 180.796 121.072C180.898 121.074 180.999 121.055 181.094 121.016C181.188 120.977 181.273 120.919 181.343 120.845C181.414 120.771 181.468 120.684 181.503 120.588C181.537 120.492 181.552 120.39 181.545 120.288Z" fill="black"/>
<path d="M183.799 119.301C183.799 119.021 183.575 118.832 183.183 118.832C183.045 118.823 182.907 118.846 182.779 118.899C182.652 118.952 182.538 119.035 182.448 119.14L182.245 118.986C182.364 118.851 182.512 118.745 182.678 118.676C182.845 118.606 183.024 118.576 183.204 118.587C183.736 118.587 184.086 118.846 184.086 119.287C184.086 119.938 183.386 119.987 183.386 120.519H183.106C183.099 119.861 183.799 119.798 183.799 119.301ZM183.043 121.1C183.052 121.053 183.077 121.011 183.113 120.981C183.149 120.951 183.195 120.935 183.243 120.935C183.29 120.935 183.336 120.951 183.372 120.981C183.409 121.011 183.433 121.053 183.442 121.1C183.448 121.129 183.447 121.159 183.439 121.188C183.432 121.217 183.418 121.244 183.399 121.267C183.38 121.29 183.356 121.309 183.329 121.321C183.302 121.334 183.272 121.341 183.243 121.341C183.213 121.341 183.183 121.334 183.156 121.321C183.129 121.309 183.105 121.29 183.086 121.267C183.067 121.244 183.054 121.217 183.046 121.188C183.039 121.159 183.038 121.129 183.043 121.1Z" fill="black"/>
</g>
<path d="M241.598 185.661H150.01V201.341H241.598V185.661Z" fill="#389238"/>
<path d="M169.981 195.3L170.268 194.698C170.766 195.108 171.394 195.329 172.039 195.321C172.963 195.321 173.362 194.964 173.362 194.495C173.362 193.186 170.114 194.012 170.114 192.017C170.114 191.191 170.758 190.484 172.165 190.484C172.775 190.473 173.376 190.638 173.894 190.96L173.642 191.569C173.2 191.289 172.688 191.139 172.165 191.135C171.255 191.135 170.863 191.52 170.863 191.989C170.863 193.298 174.118 192.479 174.118 194.446C174.118 195.272 173.418 195.972 172.018 195.972C171.282 195.991 170.562 195.753 169.981 195.3Z" fill="white"/>
<path d="M178.787 194.152H175.49C175.542 194.499 175.723 194.815 175.996 195.035C176.27 195.256 176.616 195.365 176.967 195.342C177.186 195.349 177.403 195.309 177.605 195.224C177.806 195.14 177.988 195.013 178.136 194.852L178.542 195.328C178.243 195.633 177.863 195.845 177.446 195.938C177.03 196.032 176.595 196.003 176.195 195.855C175.795 195.707 175.446 195.446 175.19 195.104C174.935 194.762 174.784 194.354 174.755 193.928C174.74 193.654 174.783 193.379 174.879 193.122C174.976 192.865 175.124 192.631 175.315 192.433C175.506 192.236 175.736 192.081 175.99 191.977C176.245 191.872 176.517 191.822 176.792 191.828C177.066 191.82 177.338 191.87 177.591 191.974C177.844 192.078 178.073 192.234 178.262 192.432C178.452 192.63 178.597 192.865 178.69 193.123C178.783 193.381 178.821 193.655 178.801 193.928C178.801 193.991 178.794 194.082 178.787 194.152ZM175.49 193.627H178.101C178.061 193.309 177.906 193.017 177.665 192.805C177.425 192.594 177.116 192.477 176.795 192.477C176.475 192.477 176.166 192.594 175.926 192.805C175.685 193.017 175.53 193.309 175.49 193.627Z" fill="white"/>
<path d="M182.112 195.706C181.856 195.898 181.543 195.997 181.223 195.986C181.05 196.006 180.875 195.987 180.711 195.93C180.547 195.873 180.397 195.78 180.274 195.658C180.15 195.535 180.055 195.387 179.997 195.223C179.938 195.06 179.917 194.885 179.935 194.712V192.5H179.235V191.898H179.935V191.009H180.67V191.898H181.839V192.5H180.67V194.705C180.653 194.795 180.658 194.888 180.683 194.976C180.708 195.064 180.754 195.145 180.815 195.213C180.877 195.28 180.953 195.333 181.039 195.366C181.124 195.4 181.216 195.413 181.307 195.405C181.514 195.41 181.717 195.344 181.881 195.216L182.112 195.706Z" fill="white"/>
<path d="M189.511 192.444C189.511 193.613 188.664 194.313 187.271 194.313H185.941V195.944H185.178V190.575H187.278C188.664 190.575 189.511 191.275 189.511 192.444ZM188.741 192.444C188.741 191.674 188.23 191.24 187.25 191.24H185.941V193.648H187.25C188.23 193.648 188.741 193.2 188.741 192.444Z" fill="white"/>
<path d="M193.718 193.487V195.944H193.018V195.405C192.862 195.606 192.657 195.765 192.424 195.866C192.19 195.968 191.935 196.009 191.681 195.986C190.764 195.986 190.183 195.496 190.183 194.789C190.183 194.082 190.603 193.599 191.814 193.599H192.983V193.459C192.983 192.836 192.619 192.472 191.891 192.472C191.425 192.472 190.971 192.627 190.603 192.913L190.295 192.36C190.781 192.003 191.372 191.819 191.975 191.835C193.088 191.835 193.718 192.374 193.718 193.487ZM192.983 194.698V194.131H191.842C191.142 194.131 190.911 194.418 190.911 194.761C190.911 195.104 191.247 195.419 191.807 195.419C192.054 195.437 192.3 195.377 192.511 195.248C192.722 195.118 192.887 194.926 192.983 194.698Z" fill="white"/>
<path d="M194.6 195.51L194.908 194.929C195.325 195.2 195.811 195.346 196.308 195.349C197.008 195.349 197.274 195.146 197.274 194.796C197.274 193.886 194.705 194.677 194.705 193.06C194.705 192.36 195.356 191.835 196.399 191.835C196.918 191.826 197.43 191.954 197.883 192.206L197.568 192.787C197.216 192.566 196.807 192.454 196.392 192.465C195.748 192.465 195.433 192.703 195.433 193.025C195.433 193.984 198.016 193.2 198.016 194.782C198.016 195.517 197.316 195.986 196.259 195.986C195.67 196 195.092 195.834 194.6 195.51Z" fill="white"/>
<path d="M198.415 195.51L198.723 194.929C199.14 195.2 199.626 195.346 200.123 195.349C200.823 195.349 201.089 195.146 201.089 194.796C201.089 193.886 198.52 194.677 198.52 193.06C198.52 192.36 199.171 191.835 200.214 191.835C200.73 191.827 201.24 191.955 201.691 192.206L201.376 192.787C201.026 192.567 200.62 192.455 200.207 192.465C199.563 192.465 199.248 192.703 199.248 193.025C199.248 193.984 201.824 193.2 201.824 194.782C201.824 195.517 201.124 195.986 200.067 195.986C199.481 195.998 198.905 195.832 198.415 195.51Z" fill="white"/>
<path d="M208.845 191.877L207.326 195.944H206.626L205.45 192.857L204.26 195.944H203.56L202.055 191.877H202.755L203.938 195.111L205.163 191.877H205.8L207.004 195.125L208.215 191.877H208.845Z" fill="white"/>
<path d="M209.104 193.9C209.104 193.485 209.227 193.079 209.458 192.733C209.689 192.388 210.017 192.119 210.4 191.96C210.784 191.801 211.206 191.759 211.614 191.84C212.021 191.921 212.395 192.121 212.689 192.415C212.983 192.709 213.183 193.083 213.264 193.49C213.345 193.898 213.303 194.32 213.144 194.704C212.985 195.087 212.716 195.415 212.371 195.646C212.025 195.877 211.619 196 211.204 196C210.925 196.011 210.647 195.964 210.388 195.862C210.128 195.76 209.892 195.606 209.695 195.409C209.498 195.212 209.343 194.976 209.242 194.716C209.14 194.457 209.093 194.179 209.104 193.9ZM212.604 193.9C212.597 193.623 212.508 193.355 212.349 193.128C212.189 192.902 211.966 192.728 211.708 192.629C211.449 192.529 211.167 192.509 210.897 192.57C210.627 192.63 210.381 192.77 210.19 192.971C209.999 193.171 209.872 193.424 209.825 193.697C209.778 193.969 209.812 194.25 209.925 194.503C210.037 194.756 210.222 194.97 210.456 195.118C210.69 195.266 210.962 195.342 211.239 195.335C211.424 195.337 211.608 195.301 211.779 195.229C211.949 195.157 212.103 195.05 212.23 194.915C212.357 194.78 212.455 194.62 212.517 194.445C212.579 194.27 212.604 194.085 212.59 193.9H212.604Z" fill="white"/>
<path d="M216.538 191.835V192.535H216.37C216.188 192.522 216.005 192.551 215.836 192.618C215.666 192.686 215.514 192.791 215.391 192.925C215.268 193.06 215.177 193.221 215.125 193.396C215.072 193.57 215.06 193.755 215.089 193.935V195.965H214.389V191.898H215.089V192.598C215.236 192.349 215.449 192.145 215.705 192.01C215.961 191.875 216.249 191.815 216.538 191.835Z" fill="white"/>
<path d="M221.242 190.253V195.944H220.542V195.3C220.376 195.526 220.157 195.708 219.904 195.83C219.652 195.952 219.373 196.01 219.093 196C218.597 195.924 218.145 195.672 217.819 195.292C217.492 194.911 217.313 194.426 217.313 193.925C217.313 193.423 217.492 192.938 217.819 192.557C218.145 192.177 218.597 191.925 219.093 191.849C219.361 191.842 219.628 191.898 219.871 192.013C220.114 192.127 220.327 192.296 220.493 192.507V190.267L221.242 190.253ZM220.5 193.9C220.493 193.623 220.404 193.355 220.245 193.129C220.085 192.902 219.862 192.728 219.604 192.629C219.345 192.529 219.063 192.509 218.793 192.57C218.523 192.63 218.277 192.77 218.086 192.971C217.895 193.171 217.768 193.424 217.721 193.697C217.674 193.969 217.708 194.25 217.821 194.503C217.933 194.756 218.118 194.97 218.352 195.118C218.586 195.266 218.858 195.342 219.135 195.335C219.321 195.339 219.507 195.305 219.679 195.233C219.851 195.162 220.007 195.055 220.135 194.92C220.264 194.785 220.363 194.624 220.426 194.448C220.488 194.273 220.514 194.086 220.5 193.9Z" fill="white"/>
<g opacity="0.6">
<path d="M166.887 79.219L165.62 77.413C165.501 77.413 165.375 77.413 165.249 77.413H163.8V79.198H162.96V73.318H165.249C166.775 73.318 167.699 74.095 167.699 75.369C167.718 75.7768 167.603 76.1797 167.37 76.5151C167.137 76.8505 166.8 77.0997 166.411 77.224L167.811 79.198L166.887 79.219ZM166.887 75.39C166.887 74.55 166.327 74.074 165.249 74.074H163.849V76.72H165.249C166.299 76.72 166.859 76.23 166.859 75.39H166.887Z" fill="#263238"/>
<path d="M172.949 77.266H169.344C169.395 77.6473 169.59 77.9944 169.89 78.2355C170.19 78.4766 170.571 78.5931 170.954 78.561C171.193 78.57 171.432 78.5271 171.653 78.4353C171.874 78.3435 172.072 78.2048 172.235 78.029L172.683 78.547C172.354 78.8808 171.936 79.1122 171.479 79.2132C171.022 79.3142 170.545 79.2804 170.106 79.116C169.668 78.9515 169.286 78.6635 169.008 78.2867C168.73 77.9099 168.567 77.4605 168.539 76.993C168.526 76.6948 168.575 76.3971 168.683 76.1186C168.79 75.84 168.953 75.5866 169.163 75.3739C169.372 75.1612 169.623 74.9938 169.9 74.8822C170.177 74.7705 170.474 74.717 170.772 74.725C171.069 74.7177 171.365 74.7722 171.64 74.8849C171.915 74.9977 172.164 75.1663 172.37 75.3801C172.577 75.594 172.737 75.8483 172.84 76.1272C172.943 76.406 172.987 76.7032 172.97 77C172.97 77.0891 172.963 77.1781 172.949 77.266ZM169.344 76.685H172.2C172.2 76.3072 172.05 75.9449 171.783 75.6777C171.516 75.4106 171.153 75.2605 170.775 75.2605C170.398 75.2605 170.035 75.4106 169.768 75.6777C169.501 75.9449 169.351 76.3072 169.351 76.685H169.344Z" fill="#263238"/>
<path d="M173.523 78.75L173.859 78.113C174.324 78.4133 174.866 78.5737 175.42 78.575C176.169 78.575 176.477 78.344 176.477 77.966C176.477 76.972 173.677 77.833 173.677 76.062C173.677 75.264 174.377 74.725 175.532 74.725C176.097 74.7167 176.655 74.8567 177.149 75.131L176.806 75.768C176.422 75.5296 175.977 75.408 175.525 75.418C174.825 75.418 174.475 75.677 174.475 76.027C174.475 77.077 177.275 76.223 177.275 77.952C177.275 78.757 176.533 79.268 175.35 79.268C174.703 79.2834 174.066 79.1028 173.523 78.75Z" fill="#263238"/>
<path d="M182.301 77.266H178.689C178.743 77.6458 178.939 77.9909 179.238 78.2314C179.537 78.4718 179.916 78.5897 180.299 78.561C180.539 78.5701 180.779 78.5273 181.001 78.4355C181.223 78.3437 181.423 78.205 181.587 78.029L182.035 78.547C181.81 78.784 181.537 78.9693 181.233 79.0902C180.93 79.211 180.604 79.2645 180.278 79.247C179.968 79.2706 179.656 79.2288 179.363 79.1244C179.07 79.0201 178.801 78.8554 178.576 78.641C178.35 78.4266 178.172 78.1673 178.053 77.8798C177.934 77.5924 177.876 77.2831 177.884 76.972C177.872 76.674 177.922 76.3768 178.03 76.0988C178.137 75.8207 178.301 75.5676 178.51 75.3551C178.719 75.1426 178.97 74.9752 179.246 74.8633C179.522 74.7513 179.819 74.6971 180.117 74.704C180.416 74.6954 180.714 74.7496 180.991 74.8633C181.269 74.977 181.519 75.1475 181.726 75.3639C181.933 75.5802 182.092 75.8376 182.194 76.1194C182.295 76.4013 182.337 76.7012 182.315 77C182.315 77.084 182.308 77.189 182.301 77.266ZM178.689 76.685H181.545C181.51 76.3306 181.344 76.002 181.08 75.763C180.816 75.5239 180.473 75.3915 180.117 75.3915C179.761 75.3915 179.418 75.5239 179.154 75.763C178.89 76.002 178.724 76.3306 178.689 76.685Z" fill="#263238"/>
<path d="M185.941 78.96C185.662 79.1713 185.318 79.2801 184.968 79.268C184.779 79.2878 184.588 79.2652 184.41 79.2018C184.231 79.1385 184.068 79.036 183.934 78.9018C183.8 78.7676 183.697 78.6052 183.634 78.4263C183.571 78.2475 183.548 78.0567 183.568 77.868V75.425H182.812V74.76H183.568V73.787H184.373V74.76H185.647V75.425H184.373V77.833C184.359 77.9304 184.367 78.0296 184.397 78.1234C184.426 78.2172 184.476 78.3032 184.544 78.3751C184.611 78.4469 184.693 78.5028 184.785 78.5386C184.876 78.5744 184.975 78.5893 185.073 78.582C185.3 78.583 185.522 78.5092 185.703 78.372L185.941 78.96Z" fill="#263238"/>
<path d="M194.033 75.39C194.033 76.664 193.109 77.441 191.583 77.441H190.134V79.219H189.294V73.339H191.583C193.109 73.339 194.033 74.116 194.033 75.39ZM193.193 75.39C193.193 74.55 192.633 74.074 191.555 74.074H190.155V76.706H191.555C192.633 76.706 193.2 76.23 193.2 75.39H193.193Z" fill="#263238"/>
<path d="M198.639 76.531V79.219H197.876V78.631C197.706 78.8521 197.482 79.0265 197.226 79.1378C196.971 79.2492 196.691 79.294 196.413 79.268C195.405 79.268 194.768 78.729 194.768 77.959C194.768 77.189 195.23 76.657 196.553 76.657H197.834V76.496C197.834 75.796 197.435 75.425 196.637 75.425C196.13 75.4206 195.636 75.5884 195.237 75.901L194.901 75.299C195.433 74.9076 196.081 74.7055 196.742 74.725C197.953 74.725 198.639 75.313 198.639 76.531ZM197.834 77.861V77.238H196.588C195.79 77.238 195.566 77.546 195.566 77.938C195.566 78.33 195.937 78.638 196.546 78.638C196.815 78.6598 197.084 78.5965 197.315 78.4571C197.546 78.3176 197.728 78.1091 197.834 77.861Z" fill="#263238"/>
<path d="M199.57 78.75L199.906 78.113C200.371 78.4133 200.913 78.5737 201.467 78.575C202.216 78.575 202.531 78.344 202.531 77.966C202.531 76.972 199.731 77.833 199.731 76.062C199.731 75.264 200.431 74.725 201.586 74.725C202.151 74.7157 202.709 74.8557 203.203 75.131L202.86 75.768C202.476 75.5288 202.031 75.4072 201.579 75.418C200.879 75.418 200.529 75.677 200.529 76.027C200.529 77.077 203.329 76.223 203.329 77.952C203.329 78.757 202.587 79.268 201.404 79.268C200.755 79.2835 200.115 79.103 199.57 78.75Z" fill="#263238"/>
<path d="M203.784 78.75L204.12 78.113C204.585 78.4141 205.127 78.5745 205.681 78.575C206.423 78.575 206.738 78.344 206.738 77.966C206.738 76.972 203.938 77.833 203.938 76.062C203.938 75.264 204.638 74.725 205.793 74.725C206.36 74.7167 206.92 74.8567 207.417 75.131L207.067 75.768C206.683 75.5288 206.238 75.4072 205.786 75.418C205.086 75.418 204.736 75.677 204.736 76.027C204.736 77.077 207.536 76.223 207.536 77.952C207.536 78.757 206.794 79.268 205.611 79.268C204.963 79.2847 204.326 79.104 203.784 78.75Z" fill="#263238"/>
<path d="M215.201 74.767L213.542 79.219H212.8L211.519 75.845L210.217 79.219H209.44L207.788 74.767H208.551L209.846 78.316L211.19 74.767H211.89L213.206 78.33L214.536 74.767H215.201Z" fill="#263238"/>
<path d="M215.481 77C215.473 76.54 215.601 76.088 215.851 75.7015C216.1 75.315 216.459 75.0115 216.882 74.8297C217.304 74.6478 217.772 74.5959 218.224 74.6805C218.676 74.7651 219.093 74.9824 219.421 75.3047C219.749 75.627 219.974 76.0397 220.067 76.4903C220.16 76.9409 220.116 77.4089 219.942 77.8347C219.768 78.2605 219.471 78.6249 219.09 78.8814C218.708 79.1379 218.258 79.2749 217.798 79.275C217.494 79.2885 217.19 79.2393 216.905 79.1303C216.621 79.0213 216.362 78.855 216.145 78.6415C215.927 78.4281 215.756 78.1722 215.642 77.8898C215.528 77.6074 215.473 77.3045 215.481 77ZM219.296 77C219.282 76.7071 219.183 76.4246 219.01 76.1877C218.838 75.9507 218.599 75.7696 218.324 75.6669C218.05 75.5642 217.751 75.5443 217.465 75.6098C217.179 75.6753 216.919 75.8232 216.716 76.0352C216.514 76.2472 216.378 76.514 216.326 76.8025C216.273 77.0911 216.307 77.3886 216.422 77.6583C216.537 77.9279 216.729 78.1579 216.973 78.3196C217.218 78.4813 217.505 78.5677 217.798 78.568C218.002 78.5734 218.205 78.536 218.394 78.4582C218.583 78.3803 218.754 78.2638 218.895 78.1161C219.036 77.9684 219.144 77.7928 219.213 77.6005C219.283 77.4083 219.311 77.2037 219.296 77Z" fill="#263238"/>
<path d="M223.622 74.725V75.509H223.433C223.237 75.4958 223.041 75.5263 222.858 75.5984C222.676 75.6704 222.511 75.7822 222.377 75.9256C222.243 76.069 222.143 76.2405 222.083 76.4275C222.024 76.6145 222.007 76.8125 222.033 77.007V79.226H221.2V74.774H221.97V75.523C222.141 75.2466 222.387 75.0247 222.68 74.8833C222.972 74.742 223.299 74.6871 223.622 74.725Z" fill="#263238"/>
<path d="M228.767 72.989V79.219H227.997V78.519C227.814 78.7649 227.573 78.9623 227.296 79.094C227.019 79.2258 226.714 79.2879 226.408 79.275C225.827 79.2428 225.281 78.9894 224.881 78.5669C224.482 78.1445 224.259 77.585 224.259 77.0035C224.259 76.422 224.482 75.8625 224.881 75.4401C225.281 75.0176 225.827 74.7642 226.408 74.732C226.704 74.7199 226.998 74.7769 227.268 74.8984C227.537 75.0199 227.775 75.2026 227.962 75.432V72.982L228.767 72.989ZM227.969 77C227.955 76.7068 227.856 76.4241 227.683 76.187C227.51 75.9499 227.271 75.7688 226.996 75.6663C226.721 75.5638 226.422 75.5444 226.136 75.6104C225.85 75.6764 225.589 75.825 225.387 76.0378C225.185 76.2505 225.049 76.5179 224.998 76.8069C224.946 77.0958 224.981 77.3936 225.097 77.6631C225.213 77.9326 225.406 78.1621 225.652 78.323C225.897 78.4838 226.184 78.5691 226.478 78.568C226.682 78.5724 226.884 78.5343 227.072 78.456C227.26 78.3778 227.43 78.2611 227.57 78.1135C227.71 77.9659 227.818 77.7906 227.887 77.5989C227.956 77.4071 227.984 77.2031 227.969 77Z" fill="#263238"/>
</g>
<path d="M241.598 132.412H150.01V148.092H241.598V132.412Z" fill="white"/>
<g opacity="0.4">
<path d="M158.781 137.697V142.191H158.389L155.498 138.544V142.191H155.022V137.697H155.4L158.298 141.344V137.697H158.781Z" fill="#263238"/>
<path d="M163.1 140.644H160.3C160.309 140.809 160.35 140.971 160.422 141.119C160.494 141.268 160.595 141.401 160.719 141.51C160.843 141.62 160.987 141.704 161.143 141.757C161.3 141.81 161.465 141.831 161.63 141.82C161.823 141.826 162.016 141.79 162.193 141.714C162.371 141.638 162.53 141.523 162.659 141.379L162.918 141.673C162.675 141.926 162.364 142.103 162.021 142.18C161.679 142.257 161.322 142.232 160.994 142.107C160.666 141.982 160.382 141.764 160.178 141.479C159.974 141.193 159.858 140.855 159.845 140.504C159.832 140.281 159.866 140.059 159.943 139.85C160.021 139.64 160.14 139.45 160.294 139.289C160.449 139.128 160.634 139 160.84 138.914C161.046 138.828 161.267 138.786 161.49 138.789C161.713 138.785 161.934 138.827 162.14 138.912C162.346 138.998 162.532 139.125 162.686 139.287C162.84 139.448 162.959 139.639 163.035 139.849C163.111 140.058 163.143 140.282 163.128 140.504C163.1 140.546 163.1 140.595 163.1 140.644ZM160.3 140.308H162.694C162.694 139.991 162.568 139.686 162.343 139.462C162.119 139.237 161.814 139.111 161.497 139.111C161.18 139.111 160.875 139.237 160.651 139.462C160.426 139.686 160.3 139.991 160.3 140.308Z" fill="#263238"/>
<path d="M168.917 138.817L167.643 142.191H167.209L166.145 139.426L165.081 142.191H164.647L163.38 138.817H163.8L164.857 141.687L165.942 138.817H166.334L167.412 141.687L168.483 138.817H168.917Z" fill="#263238"/>
<path d="M174.902 139.237C174.902 140.196 174.202 140.777 173.068 140.777H171.857V142.177H171.381V137.683H173.068C174.209 137.697 174.902 138.278 174.902 139.237ZM174.426 139.237C174.426 138.537 173.95 138.11 173.026 138.11H171.829V140.357H173.026C173.95 140.357 174.426 139.944 174.426 139.237Z" fill="#263238"/>
<path d="M178.346 140.098V142.198H177.912V141.673C177.787 141.862 177.613 142.014 177.408 142.113C177.204 142.212 176.976 142.253 176.75 142.233C175.987 142.233 175.518 141.834 175.518 141.253C175.518 140.672 175.854 140.294 176.82 140.294H177.891V140.091C177.903 139.965 177.887 139.839 177.842 139.72C177.798 139.602 177.727 139.496 177.635 139.409C177.543 139.323 177.433 139.258 177.312 139.221C177.191 139.184 177.064 139.175 176.939 139.195C176.528 139.188 176.127 139.33 175.812 139.594L175.609 139.251C176.007 138.939 176.503 138.778 177.009 138.796C177.187 138.774 177.367 138.793 177.537 138.85C177.707 138.907 177.861 139.002 177.99 139.127C178.118 139.252 178.216 139.404 178.278 139.572C178.34 139.74 178.363 139.92 178.346 140.098ZM177.891 141.176V140.623H176.834C176.176 140.623 175.966 140.882 175.966 141.232C175.966 141.582 176.281 141.869 176.82 141.869C177.049 141.882 177.276 141.823 177.469 141.698C177.662 141.573 177.809 141.39 177.891 141.176Z" fill="#263238"/>
<path d="M179.116 141.806L179.326 141.449C179.675 141.698 180.094 141.831 180.523 141.827C181.167 141.827 181.433 141.61 181.433 141.274C181.433 140.392 179.242 141.092 179.242 139.755C179.242 139.202 179.718 138.789 180.579 138.789C180.997 138.784 181.408 138.893 181.769 139.104L181.573 139.468C181.278 139.275 180.932 139.175 180.579 139.181C179.963 139.181 179.697 139.419 179.697 139.741C179.697 140.651 181.888 139.965 181.888 141.26C181.888 141.848 181.37 142.226 180.488 142.226C179.997 142.238 179.516 142.09 179.116 141.806Z" fill="#263238"/>
<path d="M182.259 141.806L182.462 141.449C182.815 141.695 183.235 141.827 183.666 141.827C184.303 141.827 184.569 141.61 184.569 141.274C184.569 140.392 182.378 141.092 182.378 139.755C182.378 139.202 182.854 138.789 183.715 138.789C184.135 138.785 184.548 138.894 184.912 139.104L184.709 139.468C184.415 139.274 184.068 139.173 183.715 139.181C183.106 139.181 182.833 139.419 182.833 139.741C182.833 140.651 185.024 139.965 185.024 141.26C185.024 141.848 184.513 142.226 183.624 142.226C183.135 142.239 182.656 142.091 182.259 141.806Z" fill="#263238"/>
<path d="M190.757 138.817L189.483 142.191H189.049L187.985 139.426L186.9 142.191H186.466L185.199 138.817H185.633L186.69 141.687L187.775 138.817H188.167L189.245 141.687L190.316 138.817H190.757Z" fill="#263238"/>
<path d="M191.009 140.504C191.01 140.165 191.112 139.835 191.301 139.554C191.49 139.273 191.758 139.054 192.071 138.925C192.384 138.796 192.728 138.763 193.06 138.829C193.392 138.896 193.697 139.059 193.937 139.298C194.176 139.538 194.339 139.843 194.406 140.175C194.472 140.507 194.439 140.851 194.31 141.164C194.181 141.477 193.962 141.745 193.681 141.934C193.4 142.123 193.07 142.225 192.731 142.226C192.502 142.235 192.275 142.196 192.062 142.113C191.849 142.03 191.655 141.903 191.494 141.741C191.332 141.58 191.205 141.386 191.122 141.173C191.039 140.96 191 140.733 191.009 140.504ZM193.977 140.504C193.965 140.259 193.881 140.023 193.735 139.825C193.59 139.627 193.39 139.477 193.16 139.392C192.93 139.307 192.68 139.291 192.441 139.347C192.202 139.403 191.984 139.527 191.816 139.706C191.647 139.884 191.534 140.108 191.492 140.349C191.449 140.591 191.478 140.84 191.576 141.065C191.673 141.29 191.835 141.482 192.04 141.616C192.245 141.75 192.486 141.821 192.731 141.82C192.901 141.822 193.07 141.789 193.227 141.723C193.384 141.657 193.525 141.559 193.642 141.435C193.76 141.312 193.85 141.165 193.907 141.005C193.965 140.844 193.989 140.674 193.977 140.504Z" fill="#263238"/>
<path d="M197.078 138.789V139.237H196.966C196.806 139.228 196.645 139.255 196.496 139.316C196.347 139.376 196.214 139.469 196.105 139.588C195.997 139.706 195.916 139.848 195.869 140.001C195.822 140.155 195.809 140.317 195.832 140.476V142.198H195.37V138.824H195.811V139.482C195.927 139.252 196.111 139.062 196.337 138.939C196.563 138.815 196.821 138.763 197.078 138.789Z" fill="#263238"/>
<path d="M200.942 137.431V142.191H200.508V141.526C200.373 141.748 200.181 141.93 199.952 142.054C199.723 142.177 199.466 142.236 199.206 142.226C198.769 142.198 198.359 142.005 198.06 141.686C197.76 141.366 197.594 140.945 197.594 140.508C197.594 140.07 197.76 139.649 198.06 139.329C198.359 139.01 198.769 138.817 199.206 138.789C199.462 138.783 199.715 138.845 199.94 138.968C200.165 139.091 200.353 139.27 200.487 139.489V137.459L200.942 137.431ZM200.494 140.504C200.482 140.259 200.398 140.023 200.253 139.826C200.108 139.628 199.908 139.478 199.678 139.392C199.449 139.307 199.199 139.291 198.96 139.346C198.721 139.401 198.504 139.525 198.335 139.703C198.166 139.88 198.053 140.104 198.009 140.345C197.966 140.586 197.994 140.835 198.091 141.06C198.187 141.285 198.347 141.477 198.552 141.612C198.756 141.748 198.996 141.82 199.241 141.82C199.412 141.823 199.582 141.791 199.739 141.725C199.897 141.659 200.039 141.562 200.157 141.438C200.275 141.314 200.366 141.167 200.424 141.006C200.482 140.846 200.506 140.674 200.494 140.504Z" fill="#263238"/>
</g>
<path d="M241.598 96.985H150.01V112.665H241.598V96.985Z" fill="white"/>
<g opacity="0.4">
<path d="M154.63 104.517C154.615 104.047 154.74 103.584 154.99 103.186C155.239 102.788 155.602 102.474 156.032 102.283C156.461 102.093 156.938 102.035 157.4 102.117C157.863 102.199 158.29 102.418 158.628 102.744C158.966 103.071 159.198 103.491 159.295 103.951C159.393 104.41 159.351 104.888 159.175 105.324C158.999 105.76 158.697 106.133 158.307 106.395C157.918 106.658 157.459 106.799 156.989 106.799C156.682 106.812 156.376 106.763 156.089 106.654C155.802 106.545 155.54 106.379 155.319 106.165C155.098 105.952 154.923 105.695 154.805 105.412C154.686 105.129 154.627 104.824 154.63 104.517ZM158.872 104.517C158.878 104.142 158.771 103.773 158.567 103.459C158.362 103.144 158.068 102.897 157.723 102.75C157.378 102.603 156.997 102.562 156.628 102.632C156.26 102.703 155.92 102.881 155.653 103.145C155.386 103.409 155.204 103.746 155.13 104.114C155.055 104.482 155.092 104.864 155.235 105.211C155.379 105.557 155.622 105.854 155.934 106.062C156.247 106.27 156.614 106.38 156.989 106.379C157.239 106.392 157.489 106.352 157.723 106.264C157.958 106.175 158.171 106.04 158.351 105.865C158.53 105.69 158.671 105.48 158.766 105.248C158.86 105.016 158.906 104.767 158.9 104.517H158.872Z" fill="#263238"/>
<path d="M160.3 101.997H160.755V106.764H160.3V101.997Z" fill="#263238"/>
<path d="M165.123 101.997V106.764H164.689V106.064C164.553 106.285 164.361 106.467 164.132 106.59C163.904 106.712 163.647 106.773 163.387 106.764C162.932 106.764 162.496 106.583 162.174 106.262C161.853 105.94 161.672 105.504 161.672 105.049C161.672 104.594 161.853 104.158 162.174 103.836C162.496 103.515 162.932 103.334 163.387 103.334C163.643 103.329 163.896 103.391 164.121 103.514C164.345 103.637 164.534 103.816 164.668 104.034V102.004L165.123 101.997ZM164.675 105.07C164.664 104.823 164.581 104.585 164.435 104.385C164.29 104.185 164.089 104.033 163.858 103.946C163.627 103.859 163.375 103.843 163.134 103.898C162.893 103.953 162.674 104.078 162.504 104.257C162.333 104.436 162.219 104.661 162.176 104.904C162.132 105.148 162.161 105.398 162.259 105.625C162.357 105.852 162.52 106.045 162.726 106.18C162.933 106.316 163.175 106.387 163.422 106.386C163.593 106.388 163.762 106.355 163.919 106.289C164.076 106.223 164.218 106.125 164.336 106.001C164.453 105.878 164.544 105.731 164.603 105.571C164.661 105.411 164.686 105.24 164.675 105.07Z" fill="#263238"/>
<path d="M171.689 103.81C171.689 104.762 170.989 105.343 169.855 105.343H168.651V106.743H168.175V102.27H169.855C170.996 102.27 171.689 102.844 171.689 103.81ZM171.213 103.81C171.213 103.11 170.737 102.676 169.813 102.676H168.623V104.923H169.813C170.737 104.923 171.213 104.517 171.213 103.81Z" fill="#263238"/>
<path d="M175.14 104.671V106.771H174.699V106.239C174.574 106.428 174.4 106.58 174.195 106.679C173.99 106.778 173.763 106.819 173.537 106.799C172.774 106.799 172.305 106.4 172.305 105.819C172.305 105.238 172.641 104.86 173.607 104.86H174.685V104.657C174.685 104.076 174.356 103.761 173.726 103.761C173.315 103.756 172.916 103.898 172.599 104.16L172.396 103.824C172.792 103.508 173.29 103.347 173.796 103.369C173.974 103.347 174.155 103.366 174.325 103.423C174.495 103.48 174.65 103.575 174.778 103.699C174.907 103.824 175.007 103.976 175.069 104.144C175.132 104.312 175.156 104.492 175.14 104.671ZM174.685 105.749V105.196H173.6C172.949 105.196 172.732 105.455 172.732 105.798C172.732 106.141 173.047 106.435 173.586 106.435C173.819 106.454 174.051 106.398 174.249 106.274C174.447 106.15 174.6 105.966 174.685 105.749Z" fill="#263238"/>
<path d="M175.91 106.4L176.113 106.036C176.464 106.287 176.886 106.42 177.317 106.414C177.954 106.414 178.22 106.197 178.22 105.868C178.22 104.986 176.029 105.679 176.029 104.342C176.029 103.789 176.505 103.383 177.366 103.383C177.786 103.376 178.201 103.485 178.563 103.698L178.36 104.062C178.066 103.868 177.719 103.767 177.366 103.775C176.757 103.775 176.484 104.006 176.484 104.328C176.484 105.245 178.675 104.552 178.675 105.854C178.675 106.435 178.164 106.813 177.275 106.813C176.787 106.828 176.308 106.683 175.91 106.4Z" fill="#263238"/>
<path d="M179.046 106.4L179.256 106.036C179.603 106.288 180.024 106.421 180.453 106.414C181.097 106.414 181.356 106.197 181.356 105.868C181.356 104.986 179.172 105.679 179.172 104.342C179.172 103.789 179.648 103.383 180.502 103.383C180.923 103.374 181.337 103.483 181.699 103.698L181.503 104.062C181.206 103.868 180.857 103.768 180.502 103.775C179.893 103.775 179.627 104.006 179.627 104.328C179.627 105.245 181.818 104.552 181.818 105.854C181.818 106.435 181.3 106.813 180.418 106.813C179.928 106.827 179.447 106.682 179.046 106.4Z" fill="#263238"/>
<path d="M187.544 103.383L186.27 106.764H185.843L184.772 103.964L183.708 106.764H183.281L182 103.383H182.434L183.498 106.253L184.583 103.383H184.975L186.053 106.253L187.124 103.383H187.544Z" fill="#263238"/>
<path d="M187.796 105.07C187.796 104.729 187.897 104.396 188.086 104.113C188.275 103.83 188.544 103.609 188.859 103.479C189.174 103.349 189.52 103.315 189.854 103.381C190.188 103.448 190.495 103.612 190.736 103.852C190.976 104.093 191.14 104.4 191.207 104.734C191.273 105.068 191.239 105.414 191.109 105.729C190.979 106.044 190.758 106.313 190.475 106.502C190.191 106.691 189.858 106.792 189.518 106.792C189.289 106.801 189.062 106.762 188.849 106.679C188.636 106.596 188.442 106.469 188.281 106.307C188.119 106.146 187.992 105.952 187.909 105.739C187.826 105.526 187.787 105.299 187.796 105.07ZM190.771 105.07C190.76 104.823 190.677 104.585 190.531 104.385C190.386 104.185 190.185 104.033 189.954 103.946C189.723 103.859 189.471 103.843 189.23 103.898C188.989 103.953 188.77 104.078 188.6 104.257C188.429 104.436 188.315 104.661 188.272 104.904C188.228 105.148 188.257 105.398 188.355 105.625C188.453 105.852 188.615 106.045 188.822 106.18C189.029 106.316 189.271 106.387 189.518 106.386C189.689 106.389 189.858 106.357 190.016 106.291C190.174 106.225 190.316 106.128 190.434 106.004C190.552 105.88 190.643 105.733 190.701 105.572C190.759 105.412 190.783 105.24 190.771 105.07Z" fill="#263238"/>
<path d="M193.9 103.362V103.803H193.788C193.627 103.795 193.467 103.823 193.318 103.884C193.169 103.946 193.036 104.04 192.927 104.159C192.819 104.278 192.738 104.419 192.691 104.573C192.644 104.727 192.631 104.89 192.654 105.049V106.771H192.199V103.39H192.633V104.055C192.75 103.825 192.933 103.637 193.16 103.513C193.386 103.389 193.644 103.337 193.9 103.362Z" fill="#263238"/>
<path d="M197.736 101.997V106.764H197.302V106.064C197.165 106.286 196.972 106.467 196.742 106.59C196.512 106.713 196.253 106.773 195.993 106.764C195.538 106.764 195.102 106.583 194.78 106.262C194.459 105.94 194.278 105.504 194.278 105.049C194.278 104.594 194.459 104.158 194.78 103.836C195.102 103.515 195.538 103.334 195.993 103.334C196.25 103.33 196.503 103.392 196.729 103.515C196.955 103.637 197.145 103.816 197.281 104.034V102.004L197.736 101.997ZM197.288 105.07C197.277 104.823 197.194 104.585 197.048 104.385C196.903 104.185 196.702 104.033 196.471 103.946C196.24 103.859 195.988 103.843 195.747 103.898C195.506 103.953 195.287 104.078 195.117 104.257C194.946 104.436 194.832 104.661 194.789 104.904C194.745 105.148 194.774 105.398 194.872 105.625C194.97 105.852 195.132 106.045 195.339 106.18C195.546 106.316 195.788 106.387 196.035 106.386C196.206 106.388 196.375 106.355 196.532 106.289C196.689 106.223 196.831 106.125 196.949 106.001C197.066 105.878 197.157 105.731 197.216 105.571C197.274 105.411 197.299 105.24 197.288 105.07Z" fill="#263238"/>
</g>
<path d="M252.7 59.199C254.883 55.395 258.486 52.6127 262.719 51.463C266.952 50.3133 271.467 50.8902 275.275 53.067L274.575 54.25L279.265 52.976L277.991 48.286L277.291 49.462C273.041 47.0265 268.065 46.1775 263.249 47.066C258.432 47.9545 254.086 50.523 250.985 54.3144C247.884 58.1059 246.229 62.8745 246.313 67.7719C246.398 72.6692 248.217 77.3778 251.447 81.06L254.569 78.323C252.304 75.7273 250.906 72.489 250.571 69.0604C250.236 65.6317 250.98 62.1841 252.7 59.199Z" fill="#263238"/>
<path d="M282.8 54.033L279.65 56.7C282.169 59.6678 283.56 63.4289 283.58 67.3214C283.599 71.214 282.245 74.9887 279.756 77.9814C277.266 80.9741 273.801 82.9929 269.97 83.6828C266.139 84.3727 262.188 83.6893 258.811 81.753L259.511 80.57L254.8 81.9L256.074 86.59L256.774 85.407C261.002 87.812 265.941 88.6514 270.726 87.7781C275.51 86.9047 279.835 84.3744 282.94 80.631C286.045 76.8876 287.733 72.1702 287.708 67.3065C287.682 62.4429 285.945 57.7435 282.8 54.033Z" fill="#263238"/>
<g opacity="0.6">
<path d="M252.7 59.199C254.883 55.395 258.486 52.6127 262.719 51.463C266.952 50.3133 271.467 50.8902 275.275 53.067L274.575 54.25L279.265 52.976L277.991 48.286L277.291 49.462C273.041 47.0265 268.065 46.1775 263.249 47.066C258.432 47.9545 254.086 50.523 250.985 54.3144C247.884 58.1059 246.229 62.8745 246.313 67.7719C246.398 72.6692 248.217 77.3778 251.447 81.06L254.569 78.323C252.304 75.7273 250.906 72.489 250.571 69.0604C250.236 65.6317 250.98 62.1841 252.7 59.199Z" fill="white"/>
<path d="M282.8 54.033L279.65 56.7C282.169 59.6678 283.56 63.4289 283.58 67.3214C283.599 71.214 282.245 74.9887 279.756 77.9814C277.266 80.9741 273.801 82.9929 269.97 83.6828C266.139 84.3727 262.188 83.6893 258.811 81.753L259.511 80.57L254.8 81.9L256.074 86.59L256.774 85.407C261.002 87.812 265.941 88.6514 270.726 87.7781C275.51 86.9047 279.835 84.3744 282.94 80.631C286.045 76.8876 287.733 72.1702 287.708 67.3065C287.682 62.4429 285.945 57.7435 282.8 54.033Z" fill="white"/>
</g>
<path d="M264.054 47.803H259.49V33.803C259.49 31.228 258.467 28.7585 256.646 26.9377C254.826 25.1169 252.356 24.094 249.781 24.094C247.206 24.094 244.736 25.1169 242.916 26.9377C241.095 28.7585 240.072 31.228 240.072 33.803V47.803H235.508V33.803C235.508 30.0176 237.012 26.3872 239.688 23.7105C242.365 21.0338 245.996 19.53 249.781 19.53C253.566 19.53 257.197 21.0338 259.874 23.7105C262.55 26.3872 264.054 30.0176 264.054 33.803V47.803Z" fill="#263238"/>
<g opacity="0.3">
<path d="M264.054 47.803H259.49V33.803C259.49 31.228 258.467 28.7585 256.646 26.9377C254.826 25.1169 252.356 24.094 249.781 24.094C247.206 24.094 244.736 25.1169 242.916 26.9377C241.095 28.7585 240.072 31.228 240.072 33.803V47.803H235.508V33.803C235.508 30.0176 237.012 26.3872 239.688 23.7105C242.365 21.0338 245.996 19.53 249.781 19.53C253.566 19.53 257.197 21.0338 259.874 23.7105C262.55 26.3872 264.054 30.0176 264.054 33.803V47.803Z" fill="white"/>
</g>
<path d="M269.283 44.24V67.151C269.283 67.5003 269.214 67.8462 269.081 68.1689C268.947 68.4917 268.751 68.7849 268.504 69.0319C268.257 69.2789 267.964 69.4748 267.641 69.6085C267.318 69.7422 266.972 69.811 266.623 69.811H232.925C232.577 69.8101 232.232 69.7405 231.91 69.6064C231.589 69.4722 231.297 69.276 231.051 69.029C230.805 68.782 230.611 68.489 230.478 68.1668C230.346 67.8446 230.278 67.4994 230.279 67.151V44.24C230.278 43.8916 230.346 43.5464 230.478 43.2242C230.611 42.902 230.805 42.609 231.051 42.362C231.297 42.115 231.589 41.9188 231.91 41.7846C232.232 41.6504 232.577 41.5809 232.925 41.58H266.623C267.064 41.5768 267.498 41.6878 267.883 41.902C268.307 42.1274 268.661 42.4643 268.908 42.8763C269.155 43.2883 269.285 43.7598 269.283 44.24Z" fill="#389238"/>
<path opacity="0.2" d="M267.883 41.902V64.351C267.883 64.7 267.814 65.0455 267.68 65.3679C267.547 65.6902 267.351 65.983 267.104 66.2294C266.856 66.4759 266.563 66.6711 266.24 66.804C265.918 66.937 265.572 67.0049 265.223 67.004H231.525C231.09 67.0053 230.661 66.897 230.279 66.689V44.24C230.278 43.8916 230.346 43.5464 230.478 43.2242C230.611 42.902 230.805 42.609 231.051 42.362C231.297 42.115 231.589 41.9188 231.91 41.7846C232.232 41.6504 232.577 41.5809 232.925 41.58H266.623C267.064 41.5768 267.498 41.6878 267.883 41.902Z" fill="white"/>
<path opacity="0.5" d="M254.8 52.822C254.787 51.9084 254.525 51.0157 254.043 50.24C253.56 49.4643 252.874 48.8351 252.06 48.4203C251.246 48.0055 250.334 47.8207 249.423 47.886C248.512 47.9513 247.635 48.264 246.889 48.7906C246.142 49.3172 245.553 50.0376 245.186 50.8742C244.819 51.7108 244.687 52.6317 244.804 53.5378C244.922 54.4439 245.284 55.3007 245.853 56.0158C246.422 56.731 247.175 57.2773 248.031 57.596L247.8 63.7H251.811L251.216 57.715C252.259 57.392 253.171 56.7419 253.817 55.8608C254.462 54.9796 254.807 53.9142 254.8 52.822Z" fill="black"/>
<path d="M89.159 59.199L91.483 66.668L93.8 59.199H89.159Z" fill="#389238"/>
<path d="M110.481 41.356H72.478C69.1571 41.356 66.465 44.0481 66.465 47.369V55.468C66.465 58.7889 69.1571 61.481 72.478 61.481H110.481C113.802 61.481 116.494 58.7889 116.494 55.468V47.369C116.494 44.0481 113.802 41.356 110.481 41.356Z" fill="#389238"/>
<path d="M78.225 51.408L79.541 52.15L79.198 52.752L77.861 51.968V53.473H77.161V51.968L75.824 52.752L75.481 52.15L76.811 51.408L75.481 50.708L75.824 50.092L77.161 50.876V49.35H77.861V50.841L79.198 50.057L79.541 50.673L78.225 51.408Z" fill="white"/>
<path d="M82.873 51.408L84.189 52.15L83.846 52.752L82.509 51.968V53.473H81.851V51.968L80.5 52.752L80.157 52.15L81.487 51.408L80.157 50.708L80.5 50.092L81.837 50.876V49.35H82.495V50.841L83.832 50.057L84.175 50.673L82.873 51.408Z" fill="white"/>
<path d="M87.5 51.408L88.816 52.15L88.473 52.752L87.136 51.968V53.473H86.436V51.968L85.099 52.752L84.756 52.15L86.079 51.408L84.756 50.708L85.099 50.092L86.436 50.876V49.385H87.136V50.876L88.473 50.092L88.816 50.708L87.5 51.408Z" fill="white"/>
<path d="M92.169 51.408L93.485 52.15L93.142 52.752L91.805 51.968V53.473H91.14V51.968L89.803 52.752L89.46 52.15L90.783 51.408L89.46 50.708L89.803 50.092L91.14 50.876V49.385H91.805V50.876L93.142 50.092L93.485 50.708L92.169 51.408Z" fill="white"/>
<path d="M96.817 51.408L98.133 52.15L97.79 52.752L96.446 51.968V53.473H95.746V51.968L94.5 52.752L94.15 52.15L95.48 51.408L94.15 50.708L94.5 50.092L95.837 50.876V49.385H96.537V50.876L97.881 50.092L98.224 50.708L96.817 51.408Z" fill="white"/>
<path d="M101.458 51.408L102.781 52.15L102.438 52.752L101.094 51.968V53.473H100.429V51.968L99.085 52.752L98.742 52.15L100.072 51.408L98.742 50.708L99.085 50.092L100.429 50.876V49.385H101.094V50.876L102.438 50.092L102.781 50.708L101.458 51.408Z" fill="white"/>
<path d="M106.106 51.408L107.422 52.15L107.079 52.752L105.742 51.968V53.473H105.042V51.968L103.705 52.752L103.362 52.15L104.692 51.408L103.362 50.708L103.705 50.092L105.042 50.876V49.35H105.742V50.841L107.079 50.057L107.422 50.673L106.106 51.408Z" fill="white"/>
<path d="M121.849 111.349L126.119 108.584L121.31 105.63C121.31 105.63 117.649 108.325 119.119 110.152L121.849 111.349Z" fill="#B55B52"/>
<path d="M128.31 104.041L123.312 102.907L121.31 105.63L126.119 108.584L128.31 104.041Z" fill="#B55B52"/>
<path d="M104.3 102.375C107.002 106.463 109.711 111.433 113.4 114.618C113.47 114.674 113.442 114.618 113.169 114.618C113.029 114.653 113.099 114.723 113.386 114.618C114.226 114.139 114.965 113.502 115.563 112.742C116.932 111.083 118.15 109.305 119.203 107.429C119.252 107.352 119.203 107.429 119.203 107.513C119.185 107.641 119.185 107.77 119.203 107.898C119.266 107.961 119.042 107.779 119.476 108.738C119.681 109.044 119.971 109.282 120.312 109.423C120.652 109.564 121.026 109.601 121.387 109.529C121.618 109.479 121.836 109.382 122.028 109.243C122.22 109.105 122.38 108.928 122.5 108.724C122.391 108.853 122.292 108.991 122.206 109.137L119.07 107.8C119.146 107.355 119.328 106.934 119.602 106.575C119.855 106.29 120.19 106.09 120.561 106.001C120.925 105.93 121.302 105.967 121.644 106.109C121.986 106.251 122.279 106.491 122.486 106.799C122.92 107.765 122.703 107.583 122.766 107.653C122.774 107.876 122.753 108.1 122.703 108.318C121.604 112.987 118.734 120.68 112.784 120.722C108.584 120.337 105.399 115.724 103.04 112.812C101.366 110.57 99.8232 108.233 98.42 105.812L104.265 102.382L104.3 102.375Z" fill="#B55B52"/>
<path d="M102.144 99.302C104.944 100.226 110.621 113.127 110.621 113.127L100.975 117.705C100.975 117.705 99.015 107.569 99.4 104.3C99.6414 102.344 100.623 100.555 102.144 99.302Z" fill="#389238"/>
<path opacity="0.7" d="M102.144 99.302C104.944 100.226 110.621 113.127 110.621 113.127L100.975 117.705C100.975 117.705 99.015 107.569 99.4 104.3C99.6414 102.344 100.623 100.555 102.144 99.302Z" fill="white"/>
<path d="M113.484 248.871L108.57 250.264L107.401 242.613L106.771 238.525L111.685 237.132L112.525 242.613L113.484 248.871Z" fill="#B55B52"/>
<path d="M85.232 249.27L80.164 249.942L80.115 242.613L80.08 238.056L85.155 237.398L85.19 242.613L85.232 249.27Z" fill="#B55B52"/>
<path opacity="0.2" d="M85.155 237.398L85.19 242.613H80.115L80.08 238.056L85.155 237.398Z" fill="black"/>
<path opacity="0.2" d="M112.525 242.613H107.401L106.771 238.525L111.685 237.132L112.525 242.613Z" fill="black"/>
<path d="M113.4 248.101L107.8 247.954C107.698 247.951 107.598 247.982 107.517 248.043C107.436 248.104 107.377 248.191 107.352 248.29L106.183 252.784C106.146 252.892 106.137 253.008 106.155 253.121C106.173 253.234 106.219 253.341 106.288 253.432C106.357 253.523 106.447 253.596 106.551 253.644C106.655 253.692 106.769 253.714 106.883 253.708C108.899 253.708 111.783 253.708 114.338 253.757C117.299 253.841 119.182 253.694 122.654 253.757C124.754 253.813 125.405 251.72 124.537 251.503C120.568 250.523 117.978 250.719 114.597 248.507C114.243 248.264 113.829 248.124 113.4 248.101Z" fill="#263238"/>
<path d="M113.827 248.724C113.823 248.699 113.827 248.673 113.838 248.651C113.849 248.628 113.867 248.61 113.89 248.598C114.128 248.486 116.221 247.499 116.83 247.863C116.888 247.896 116.936 247.944 116.969 248.002C117.002 248.06 117.019 248.125 117.019 248.192C117.026 248.302 117.006 248.412 116.962 248.513C116.919 248.614 116.852 248.703 116.767 248.773C116.193 249.249 114.737 249.011 113.918 248.822C113.894 248.818 113.873 248.806 113.856 248.788C113.84 248.77 113.83 248.748 113.827 248.724ZM114.324 248.668C115.451 248.885 116.291 248.857 116.613 248.584C116.67 248.54 116.715 248.482 116.743 248.416C116.771 248.35 116.782 248.277 116.774 248.206C116.776 248.179 116.771 248.153 116.758 248.129C116.746 248.106 116.727 248.086 116.704 248.073H116.662C116.277 247.912 115.15 248.304 114.324 248.668Z" fill="#389238"/>
<path d="M113.869 248.801C113.852 248.79 113.839 248.774 113.831 248.755C113.824 248.736 113.822 248.716 113.827 248.696C113.9 247.975 114.202 247.295 114.688 246.757C114.784 246.677 114.896 246.619 115.017 246.586C115.138 246.553 115.265 246.547 115.388 246.568C115.717 246.61 115.808 246.778 115.829 246.918C115.899 247.492 114.639 248.563 114.009 248.822C113.981 248.829 113.953 248.829 113.925 248.822L113.869 248.801ZM115.332 246.806C115.244 246.794 115.154 246.801 115.069 246.825C114.984 246.849 114.904 246.89 114.835 246.946C114.447 247.377 114.203 247.917 114.135 248.493C114.779 248.136 115.64 247.296 115.591 246.946C115.591 246.946 115.591 246.869 115.486 246.834L115.332 246.806Z" fill="#389238"/>
<path d="M85.029 248.101L79.429 247.954C79.3273 247.951 79.2275 247.982 79.146 248.043C79.0646 248.104 79.0064 248.191 78.981 248.29L77.805 252.784C77.7763 252.892 77.7725 253.005 77.7941 253.115C77.8156 253.225 77.8619 253.328 77.9294 253.417C77.9969 253.506 78.0838 253.579 78.1836 253.629C78.2833 253.679 78.3932 253.706 78.505 253.708C80.514 253.708 83.405 253.708 85.96 253.757C88.921 253.841 90.797 253.694 94.269 253.757C96.369 253.813 97.027 251.72 96.152 251.503C92.19 250.523 89.593 250.719 86.219 248.507C85.8664 248.267 85.4551 248.126 85.029 248.101Z" fill="#263238"/>
<path d="M85.4 248.724C85.3963 248.698 85.4011 248.672 85.4137 248.649C85.4264 248.626 85.4462 248.608 85.47 248.598C85.708 248.486 87.794 247.499 88.403 247.863C88.4607 247.896 88.5086 247.944 88.5418 248.002C88.575 248.06 88.5923 248.125 88.592 248.192C88.5995 248.301 88.5812 248.411 88.5386 248.512C88.4961 248.613 88.4304 248.702 88.347 248.773C87.766 249.249 86.31 249.011 85.491 248.822C85.4682 248.816 85.4475 248.803 85.4314 248.786C85.4153 248.769 85.4044 248.747 85.4 248.724ZM85.904 248.668C87.024 248.885 87.871 248.857 88.193 248.584C88.249 248.539 88.293 248.481 88.3211 248.415C88.3492 248.349 88.3605 248.277 88.354 248.206C88.3539 248.179 88.3468 248.153 88.3333 248.129C88.3198 248.106 88.3004 248.086 88.277 248.073H88.235C87.885 247.912 86.758 248.304 85.932 248.668H85.904Z" fill="#389238"/>
<path d="M85.477 248.801C85.4594 248.79 85.4454 248.775 85.4367 248.756C85.428 248.737 85.425 248.716 85.428 248.696C85.5048 247.974 85.8087 247.295 86.296 246.757C86.3919 246.676 86.5042 246.618 86.6251 246.585C86.746 246.553 86.8726 246.547 86.996 246.568C87.325 246.61 87.416 246.778 87.43 246.918C87.507 247.492 86.24 248.563 85.617 248.822C85.5871 248.829 85.5559 248.829 85.526 248.822L85.477 248.801ZM86.94 246.806C86.852 246.794 86.7624 246.8 86.6769 246.824C86.5913 246.848 86.5117 246.89 86.443 246.946C86.0582 247.379 85.8141 247.918 85.743 248.493C86.387 248.136 87.248 247.296 87.206 246.946C87.2 246.919 87.1862 246.893 87.1664 246.874C87.1465 246.854 87.1214 246.84 87.094 246.834C87.0448 246.815 86.9926 246.806 86.94 246.806Z" fill="#389238"/>
<path d="M74.781 137.9C72.093 149.534 76.699 241.073 76.699 241.073H85.603L89.411 164.773L103.411 241.073L112.931 240.373C106.708 181.279 101.213 145.999 101.213 145.999V141.54L74.781 137.9Z" fill="#263238"/>
<path opacity="0.2" d="M112.945 240.359L103.425 241.059L92.4 180.999L89.418 164.766L85.61 241.066H76.706C76.706 241.066 72.1 149.513 74.781 137.9L101.241 141.547V146.006C101.241 146.006 106.722 181.3 112.945 240.359Z" fill="white"/>
<path d="M74.2 98.553C75.1324 104.046 75.6542 109.601 75.761 115.171C75.852 119.056 75.761 122.752 75.628 126.098C75.278 133.945 74.522 139.881 74.557 141.918L101.269 142.394C107.639 114.464 102.165 99.302 102.165 99.302C100.094 98.727 97.9902 98.2782 95.865 97.958C95.3983 97.8973 94.9316 97.8413 94.465 97.79C90.6875 97.5027 86.8966 97.4326 83.111 97.58C82.411 97.58 81.662 97.643 80.955 97.699C77.385 98 74.2 98.553 74.2 98.553Z" fill="#389238"/>
<path d="M95.333 98.7C95.333 98.7 93.744 101.003 92.47 101.164C90.664 101.409 84.07 97.37 84.07 97.37C85.596 96.243 86.345 93.786 86.674 91.189C86.9093 89.081 86.9539 86.956 86.807 84.84L92.974 91.546C92.162 93.646 91.679 95.886 93.275 97.461C93.8617 98.0202 94.5643 98.4432 95.333 98.7Z" fill="#B55B52"/>
<path opacity="0.2" d="M93.261 97.44C90.5444 95.9577 88.2674 93.7845 86.66 91.14C86.8953 89.032 86.9398 86.907 86.793 84.791L92.96 91.497C92.148 93.618 91.7 95.9 93.261 97.44Z" fill="black"/>
<path d="M100.1 78.792C100.625 80.731 100.1 84.665 97.496 83.265C94.892 81.865 99.225 75.446 100.1 78.792Z" fill="#263238"/>
<path d="M86.184 80.787C85.673 85.687 85.127 88.557 87.178 91.448C90.272 95.788 96.677 94.493 98.644 89.81C100.422 85.61 100.954 78.26 96.495 75.572C95.5056 74.9774 94.3816 74.6435 93.2281 74.6014C92.0745 74.5594 90.9292 74.8106 89.8991 75.3315C88.869 75.8525 87.988 76.6262 87.3382 77.5803C86.6885 78.5344 86.2914 79.6377 86.184 80.787Z" fill="#B55B52"/>
<path d="M89.754 78.253L89.999 72.744C89.999 72.744 84.147 72.044 84.28 75.068C80.962 76.538 82.278 81.655 86.534 84.322C89.012 82.516 88.935 77.889 88.935 77.889C89.187 78.015 89.467 78.134 89.754 78.253Z" fill="#263238"/>
<path d="M83.629 84.532C83.7187 85.1399 83.9282 85.724 84.2455 86.2503C84.5627 86.7767 84.9813 87.2347 85.477 87.598C86.807 88.564 88.06 87.5 88.172 85.946C88.277 84.546 87.71 82.355 86.142 82.005C85.7961 81.9369 85.4387 81.9553 85.1016 82.0584C84.7645 82.1615 84.4581 82.3463 84.2095 82.5963C83.9609 82.8462 83.7779 83.1537 83.6766 83.4914C83.5753 83.829 83.559 84.1865 83.629 84.532Z" fill="#B55B52"/>
<path d="M93.373 83.3C93.303 83.699 93.464 84.049 93.723 84.091C93.982 84.133 94.248 83.846 94.311 83.447C94.374 83.048 94.22 82.698 93.961 82.656C93.702 82.614 93.436 82.901 93.373 83.3Z" fill="#263238"/>
<path d="M97.867 84C97.804 84.399 97.965 84.756 98.224 84.791C98.483 84.826 98.749 84.546 98.812 84.147C98.875 83.748 98.721 83.398 98.462 83.356C98.203 83.314 97.937 83.608 97.867 84Z" fill="#263238"/>
<path d="M96.404 84C96.7047 85.2486 97.1758 86.4499 97.804 87.57C97.4977 87.7063 97.1662 87.7767 96.831 87.7767C96.4958 87.7767 96.1643 87.7063 95.858 87.57L96.404 84Z" fill="#A02724"/>
<path d="M93.471 88.76C93.638 88.8127 93.8088 88.8525 93.982 88.879C94.0125 88.8831 94.0435 88.8751 94.0683 88.8568C94.0931 88.8386 94.1098 88.8114 94.115 88.781C94.118 88.7653 94.1178 88.7492 94.1145 88.7337C94.1112 88.7181 94.1048 88.7033 94.0956 88.6903C94.0865 88.6772 94.0748 88.6661 94.0613 88.6576C94.0478 88.6492 94.0327 88.6435 94.017 88.641C93.5229 88.5748 93.0512 88.3934 92.6402 88.1113C92.2292 87.8291 91.8903 87.4543 91.651 87.017C91.6457 87.0022 91.6373 86.9888 91.6265 86.9774C91.6156 86.9661 91.6025 86.9572 91.588 86.9512C91.5735 86.9453 91.5579 86.9425 91.5422 86.943C91.5265 86.9434 91.5111 86.9472 91.497 86.954C91.4684 86.9663 91.4459 86.9894 91.4341 87.0182C91.4223 87.0469 91.4223 87.0792 91.434 87.108C91.6424 87.5081 91.9308 87.8611 92.2811 88.1453C92.6315 88.4294 93.0365 88.6386 93.471 88.76Z" fill="#263238"/>
<path d="M92.225 81.634C92.2649 81.6473 92.3077 81.649 92.3485 81.6391C92.3894 81.6292 92.4266 81.608 92.456 81.578C92.6672 81.3672 92.9244 81.2082 93.2074 81.1135C93.4904 81.0187 93.7914 80.9908 94.087 81.032C94.1169 81.0389 94.1478 81.0398 94.1781 81.0348C94.2083 81.0297 94.2372 81.0187 94.2632 81.0025C94.2892 80.9862 94.3118 80.965 94.3296 80.94C94.3474 80.9151 94.3601 80.8869 94.367 80.857C94.3739 80.8271 94.3748 80.7962 94.3698 80.7659C94.3647 80.7357 94.3537 80.7067 94.3375 80.6807C94.3212 80.6547 94.3 80.6322 94.2751 80.6144C94.2501 80.5966 94.2219 80.5839 94.192 80.577C93.8208 80.5139 93.4398 80.5414 93.0815 80.6572C92.7232 80.773 92.3981 80.9736 92.134 81.242C92.0895 81.2866 92.0646 81.347 92.0646 81.41C92.0646 81.473 92.0895 81.5334 92.134 81.578C92.1601 81.6028 92.1911 81.6218 92.225 81.634Z" fill="#263238"/>
<path d="M100.1 82.761C100.143 82.7749 100.19 82.7749 100.233 82.761C100.293 82.7431 100.344 82.7022 100.374 82.6471C100.404 82.5921 100.411 82.5273 100.394 82.467C100.296 82.1058 100.111 81.7738 99.8562 81.4996C99.6014 81.2253 99.284 81.0168 98.931 80.892C98.8707 80.8764 98.8068 80.8844 98.7522 80.9143C98.6975 80.9442 98.6564 80.9938 98.637 81.053C98.6196 81.1133 98.6268 81.1781 98.657 81.2331C98.6871 81.2882 98.7378 81.3291 98.798 81.347C99.0779 81.4456 99.3289 81.6124 99.5281 81.8325C99.7273 82.0525 99.8686 82.3187 99.939 82.607C99.9512 82.6438 99.9723 82.6772 100 82.704C100.028 82.7308 100.063 82.7504 100.1 82.761Z" fill="#263238"/>
<path d="M84.28 75.068C84.28 75.068 81.256 72.065 91.518 72.338C101.78 72.611 103.488 78.365 98.784 79.702L98.574 78.764C97.7661 79.1805 96.8785 79.4197 95.9707 79.4656C95.0629 79.5115 94.1558 79.3629 93.31 79.03L94.052 78.568C94.052 78.568 87.045 79.282 84.28 75.068Z" fill="#263238"/>
<path d="M92.47 101.143C92.47 101.143 91.161 102.655 89.67 104.146C87.493 103.047 82.397 100.1 82.67 97.377C82.971 96.586 85.043 96.082 85.043 96.082C85.043 96.082 87.241 99.015 92.47 101.143Z" fill="#389238"/>
<path d="M92.47 101.143C93.541 102.006 94.4837 103.017 95.27 104.146C96.873 103.11 96.068 98.042 95.48 97.482C94.6323 97.0189 93.681 96.7781 92.715 96.782C93.0322 97.4739 93.1757 98.2329 93.133 98.9929C93.0903 99.7528 92.8627 100.491 92.47 101.143Z" fill="#389238"/>
<g opacity="0.5">
<path d="M92.47 101.143C92.47 101.143 91.161 102.655 89.67 104.146C87.493 103.047 82.397 100.1 82.67 97.377C82.971 96.586 85.043 96.082 85.043 96.082C85.043 96.082 87.241 99.015 92.47 101.143Z" fill="white"/>
<path d="M92.47 101.143C93.5409 102.006 94.4837 103.017 95.27 104.146C96.873 103.11 96.068 98.042 95.48 97.482C94.6322 97.0189 93.681 96.7781 92.715 96.782C93.0322 97.4739 93.1757 98.2329 93.133 98.9929C93.0903 99.7529 92.8627 100.491 92.47 101.143Z" fill="white"/>
</g>
<path opacity="0.2" d="M92.4 180.999L89.418 164.766L89.992 156.177C89.992 156.177 94.073 171.073 92.4 180.999Z" fill="black"/>
<path d="M77 105.966C74.41 110.285 70.399 116.466 68.201 120.855C67.032 123.34 66.668 126 66.031 128.681C65.422 131.544 64.813 134.463 64.141 137.347L60.795 137.053C60.676 134.022 60.704 131.019 60.886 127.988C61.117 124.831 61.285 121.422 62.475 118.426C64.841 112.665 67.956 107.513 71.295 102.326L77 105.98V105.966Z" fill="#B55B52"/>
<path d="M74.2 98.553C70.441 99.526 63.7 113.036 63.7 113.036L71.687 118.209L78.89 111.209C79.3034 108.675 79.148 106.081 78.435 103.614C77.266 99.4 74.2 98.553 74.2 98.553Z" fill="#389238"/>
<path opacity="0.7" d="M74.2 98.553C70.441 99.526 63.7 113.036 63.7 113.036L71.687 118.209L78.89 111.209C79.3034 108.675 79.148 106.081 78.435 103.614C77.266 99.4 74.2 98.553 74.2 98.553Z" fill="white"/>
<path d="M77.0333 140.199L132.521 81.3572C132.82 81.0402 133.179 80.7851 133.576 80.6067C133.974 80.4282 134.403 80.3297 134.838 80.317C135.274 80.3042 135.707 80.3773 136.115 80.5322C136.522 80.6871 136.895 80.9206 137.212 81.2196L138.551 82.4826C139.191 83.0864 139.566 83.9197 139.591 84.7993C139.617 85.6789 139.293 86.5328 138.689 87.173L83.2006 146.014L77.0333 140.199Z" fill="#263238"/>
<path opacity="0.6" d="M77.0333 140.199L132.521 81.3572C132.82 81.0402 133.179 80.7851 133.576 80.6067C133.974 80.4282 134.403 80.3297 134.838 80.317C135.274 80.3042 135.707 80.3773 136.115 80.5322C136.522 80.6871 136.895 80.9206 137.212 81.2196L138.551 82.4826C139.191 83.0864 139.566 83.9197 139.591 84.7993C139.617 85.6789 139.293 86.5328 138.689 87.173L83.2006 146.014L77.0333 140.199Z" fill="white"/>
<path opacity="0.2" d="M137.62 81.613L138.551 82.488C138.868 82.7861 139.123 83.1439 139.302 83.5406C139.48 83.9374 139.579 84.3655 139.592 84.8005C139.605 85.2354 139.532 85.6686 139.377 86.0754C139.223 86.4821 138.99 86.8544 138.691 87.171L83.202 146.02L82.278 145.145L137.767 86.296C138.065 85.979 138.298 85.6063 138.452 85.1993C138.606 84.7923 138.678 84.3589 138.664 83.924C138.651 83.4891 138.551 83.0611 138.372 82.6646C138.193 82.268 137.937 81.9107 137.62 81.613Z" fill="black"/>
<path d="M119.917 104.398L130.2 114.1L131.537 112.679L130.207 111.426L132.321 109.179L131.544 108.444L134.722 105.077L135.499 105.812L137.487 103.705L138.817 104.965L140.196 103.495L139.419 102.76L141.407 100.646L139.846 99.176L141.148 97.797L143.493 100.002L145.873 97.482L135.59 87.78L119.917 104.398Z" fill="#263238"/>
<path opacity="0.6" d="M119.917 104.398L130.2 114.1L131.537 112.679L130.207 111.426L132.321 109.179L131.544 108.444L134.722 105.077L135.499 105.812L137.487 103.705L138.817 104.965L140.196 103.495L139.419 102.76L141.407 100.646L139.846 99.176L141.148 97.797L143.493 100.002L145.873 97.482L135.59 87.78L119.917 104.398Z" fill="white"/>
<g opacity="0.2">
<path opacity="0.6" d="M130.61 111.813L129.275 113.229L130.202 114.103L131.537 112.688L130.61 111.813Z" fill="black"/>
<path opacity="0.6" d="M135.499 105.812L134.722 105.07L131.544 108.444L132.321 109.179L130.207 111.426L129.276 110.551L131.397 108.304L130.613 107.569L133.791 104.195L134.575 104.937L136.556 102.83L137.487 103.705L135.499 105.812Z" fill="black"/>
<path opacity="0.6" d="M138.488 101.878L140.483 99.771L141.414 100.646L139.419 102.76L140.203 103.495L138.817 104.965L137.893 104.09L139.272 102.62L138.488 101.878Z" fill="black"/>
<path opacity="0.6" d="M140.214 96.919L138.912 98.2991L139.839 99.1732L141.141 97.7931L140.214 96.919Z" fill="black"/>
<path opacity="0.6" d="M144.944 96.6117L142.562 99.1377L143.489 100.012L145.871 97.4858L144.944 96.6117Z" fill="black"/>
</g>
<path d="M131.045 81.8399L114.034 99.8783C113.753 100.176 113.767 100.646 114.065 100.927L120.237 106.748C120.535 107.029 121.005 107.015 121.286 106.717L138.297 88.6786C138.578 88.3805 138.564 87.9109 138.266 87.6298L132.093 81.8091C131.795 81.528 131.326 81.5417 131.045 81.8399Z" fill="#263238"/>
<path d="M83.524 165.039C82.233 166.408 80.6849 167.51 78.9681 168.281C77.2513 169.052 75.3995 169.478 73.5183 169.533C71.6371 169.588 69.7634 169.272 68.0043 168.603C66.2452 167.934 64.6351 166.925 63.266 165.634L58.618 161.252C57.2486 159.961 56.1469 158.413 55.3758 156.696C54.6048 154.979 54.1795 153.127 54.1242 151.246C54.069 149.365 54.3848 147.491 55.0538 145.732C55.7228 143.973 56.7317 142.363 58.023 140.994C59.3151 139.619 60.8659 138.513 62.5865 137.739C64.3071 136.964 66.1635 136.537 68.0495 136.482C69.9354 136.427 71.8137 136.744 73.5767 137.416C75.3396 138.089 76.9526 139.102 78.323 140.399L82.964 144.781C84.3311 146.074 85.43 147.624 86.198 149.342C86.966 151.06 87.388 152.913 87.44 154.794C87.492 156.675 87.1729 158.548 86.501 160.306C85.8291 162.064 84.8175 163.672 83.524 165.039Z" fill="#263238"/>
<path d="M78.183 159.999C77.5406 160.681 76.7701 161.231 75.9154 161.615C75.0607 161.999 74.1386 162.212 73.2019 162.24C72.2651 162.268 71.332 162.111 70.4559 161.778C69.5798 161.445 68.7779 160.943 68.096 160.3L63.7 156.1C63.0181 155.457 62.4695 154.686 62.0856 153.831C61.7018 152.976 61.4901 152.054 61.4628 151.117C61.4355 150.181 61.5931 149.248 61.9265 148.372C62.2599 147.496 62.7627 146.694 63.406 146.013C64.0477 145.33 64.8179 144.781 65.6723 144.397C66.5267 144.013 67.4485 143.801 68.385 143.774C69.3214 143.746 70.254 143.904 71.1294 144.238C72.0047 144.572 72.8056 145.075 73.486 145.719L77.924 149.919C79.2943 151.222 80.0913 153.015 80.1399 154.905C80.1885 156.796 79.4846 158.628 78.183 159.999Z" fill="white"/>
<path opacity="0.5" d="M131.045 81.8399L114.034 99.8783C113.753 100.176 113.767 100.646 114.065 100.927L120.237 106.748C120.535 107.029 121.005 107.015 121.286 106.717L138.297 88.6786C138.578 88.3805 138.564 87.9109 138.266 87.6298L132.093 81.8091C131.795 81.528 131.326 81.5417 131.045 81.8399Z" fill="white"/>
<g opacity="0.5">
<path d="M83.524 165.039C82.233 166.408 80.6849 167.51 78.9681 168.281C77.2513 169.052 75.3995 169.478 73.5183 169.533C71.6371 169.588 69.7634 169.272 68.0043 168.603C66.2452 167.934 64.6351 166.925 63.266 165.634L58.618 161.252C57.2486 159.961 56.1469 158.413 55.3758 156.696C54.6048 154.979 54.1795 153.127 54.1242 151.246C54.069 149.365 54.3848 147.491 55.0538 145.732C55.7228 143.973 56.7317 142.363 58.023 140.994C59.3151 139.619 60.8659 138.513 62.5865 137.739C64.3071 136.964 66.1635 136.537 68.0495 136.482C69.9354 136.427 71.8137 136.744 73.5767 137.416C75.3396 138.089 76.9526 139.102 78.323 140.399L82.964 144.781C84.3311 146.074 85.43 147.624 86.198 149.342C86.966 151.06 87.388 152.913 87.44 154.794C87.492 156.675 87.1729 158.548 86.501 160.306C85.8291 162.064 84.8175 163.672 83.524 165.039Z" fill="white"/>
<path d="M78.183 159.999C77.5406 160.681 76.7701 161.231 75.9154 161.615C75.0607 161.999 74.1386 162.212 73.2019 162.24C72.2651 162.268 71.332 162.111 70.4559 161.778C69.5798 161.445 68.7779 160.943 68.096 160.3L63.7 156.1C63.0181 155.457 62.4695 154.686 62.0856 153.831C61.7018 152.976 61.4901 152.054 61.4628 151.117C61.4355 150.181 61.5931 149.248 61.9265 148.372C62.2599 147.496 62.7627 146.694 63.406 146.013C64.0477 145.33 64.8179 144.781 65.6723 144.397C66.5267 144.013 67.4485 143.801 68.385 143.774C69.3214 143.746 70.254 143.904 71.1294 144.238C72.0047 144.572 72.8056 145.075 73.486 145.719L77.924 149.919C79.2943 151.222 80.0913 153.015 80.1399 154.905C80.1885 156.796 79.4846 158.628 78.183 159.999Z" fill="white"/>
</g>
<path opacity="0.2" d="M136.409 85.876L138.271 87.626C138.341 87.695 138.397 87.7773 138.435 87.868C138.473 87.9588 138.492 88.0561 138.492 88.1545C138.492 88.2528 138.473 88.3502 138.435 88.4409C138.397 88.5317 138.341 88.6139 138.271 88.683L121.261 106.715C121.193 106.785 121.111 106.84 121.021 106.878C120.931 106.916 120.834 106.936 120.736 106.936C120.638 106.936 120.541 106.916 120.451 106.878C120.361 106.84 120.279 106.785 120.211 106.715L118.356 104.965C118.495 105.102 118.682 105.179 118.878 105.179C119.073 105.179 119.26 105.102 119.399 104.965L136.409 86.926C136.479 86.8575 136.534 86.7759 136.572 86.6857C136.61 86.5956 136.63 86.4988 136.63 86.401C136.63 86.3032 136.61 86.2064 136.572 86.1162C136.534 86.0261 136.479 85.9444 136.409 85.876Z" fill="black"/>
<g opacity="0.2">
<path d="M72.1 144.424L73.5 145.733C72.109 144.531 70.3077 143.911 68.4714 144.004C66.6351 144.096 64.9053 144.894 63.6422 146.23C62.3792 147.566 61.6802 149.338 61.691 151.176C61.7018 153.015 62.4214 154.779 63.7 156.1L62.3 154.784C60.9234 153.484 60.1194 151.691 60.0649 149.799C60.0105 147.907 60.7099 146.07 62.0095 144.693C63.3091 143.317 65.1023 142.513 66.9946 142.458C68.8869 142.404 70.7234 143.103 72.1 144.403V144.424Z" fill="black"/>
<path d="M81.543 143.5L82.943 144.816C85.6209 147.445 87.1613 151.019 87.2334 154.771C87.3054 158.523 85.9035 162.153 83.3286 164.883C80.7536 167.613 77.211 169.224 73.4612 169.371C69.7115 169.518 66.0536 168.189 63.273 165.669L61.873 164.36C64.6444 166.939 68.3235 168.318 72.1074 168.194C75.8913 168.071 79.4728 166.455 82.0701 163.701C84.6674 160.947 86.0697 157.276 85.971 153.492C85.8722 149.707 84.2805 146.115 81.543 143.5Z" fill="black"/>
</g>
<g opacity="0.2">
<path d="M72.1 144.424L73.5 145.733C72.109 144.531 70.3077 143.911 68.4714 144.004C66.6351 144.096 64.9053 144.894 63.6422 146.23C62.3792 147.566 61.6802 149.338 61.691 151.176C61.7018 153.015 62.4214 154.779 63.7 156.1L62.3 154.784C60.9234 153.484 60.1194 151.691 60.0649 149.799C60.0105 147.907 60.7099 146.07 62.0095 144.693C63.3091 143.317 65.1023 142.513 66.9946 142.458C68.8869 142.404 70.7234 143.103 72.1 144.403V144.424Z" fill="black"/>
<path d="M72.1 144.424L73.5 145.733C72.109 144.531 70.3077 143.911 68.4714 144.004C66.6351 144.096 64.9053 144.894 63.6422 146.23C62.3792 147.566 61.6802 149.338 61.691 151.176C61.7018 153.015 62.4214 154.779 63.7 156.1L62.3 154.784C60.9234 153.484 60.1194 151.691 60.0649 149.799C60.0105 147.907 60.7099 146.07 62.0095 144.693C63.3091 143.317 65.1023 142.513 66.9946 142.458C68.8869 142.404 70.7234 143.103 72.1 144.403V144.424Z" fill="black"/>
</g>
<path d="M61.446 145.047L66.591 143.759L66.017 140L59.745 141.267L61.446 145.047Z" fill="#B55B52"/>
<path d="M60.942 136.346L59.745 141.246L66.045 139.979C66.045 139.979 66.129 135.576 63.791 135.289L60.942 136.346Z" fill="#B55B52"/>
</svg>
